<svg xmlns="http://www.w3.org/2000/svg" version="1.1" xmlns:xlink="http://www.w3.org/1999/xlink" xmlns:svgjs="http://svgjs.dev/svgjs" width="2000" height="1968" viewBox="0 0 2000 1968"><g transform="matrix(1,0,0,1,-2.0619614914600106,-3.1741935483871657)"><svg viewBox="0 0 252 248" data-background-color="#ffffff" preserveAspectRatio="xMidYMid meet" height="1968" width="2000" xmlns="http://www.w3.org/2000/svg" xmlns:xlink="http://www.w3.org/1999/xlink"><g id="tight-bounds" transform="matrix(1,0,0,1,0.259807147923965,0.4000000000000057)"><svg viewBox="0 0 251.48038570415207 247.2" height="247.2" width="251.48038570415207"><g><svg viewBox="0 0 397.4976 390.7318912561126" height="247.2" width="251.48038570415207"><g><rect width="397.4976" height="11.967601764414812" x="0" y="214.72907066041628" fill="#080a1d" opacity="1" stroke-width="0" stroke="transparent" fill-opacity="1" class="rect-yte-0" data-fill-palette-color="primary" rx="1%" id="yte-0" data-palette-color="#080a1d"></rect></g><g transform="matrix(1,0,0,1,0.9887999999999693,258.02547285523633)"><svg viewBox="0 0 395.52000000000004 132.70641840087626" height="132.70641840087626" width="395.52000000000004"><g id="textblocktransform"><svg viewBox="0 0 395.52000000000004 132.70641840087626" height="132.70641840087626" width="395.52000000000004" id="textblock"><g><svg viewBox="0 0 395.52000000000004 132.70641840087626" height="132.70641840087626" width="395.52000000000004"><g transform="matrix(1,0,0,1,0,0)"><svg width="395.52000000000004" viewBox="1.65 -35.95 136.94 45.95" height="132.70641840087626" data-palette-color="#080a1d"><path d="M8.55 0.2L8.55 0.2Q5.95 0.2 4.33-1.33 2.7-2.85 2.7-6.05L2.7-6.05Q2.7-7.65 3.08-9.43 3.45-11.2 3.93-12.93 4.4-14.65 4.75-16.05 5.1-17.45 5.1-18.3L5.1-18.3Q5.1-19.15 4.75-19.53 4.4-19.9 3.9-19.9L3.9-19.9Q3.4-19.9 2.9-19.58 2.4-19.25 2.05-18.6L2.05-18.6 1.65-18.75Q1.75-20.8 2.8-22.25 3.85-23.7 5.43-24.45 7-25.2 8.6-25.2L8.6-25.2Q9.9-25.2 11.1-24.68 12.3-24.15 13.03-23.08 13.75-22 13.7-20.35L13.7-20.35Q13.65-19.25 13.3-17.65 12.95-16.05 12.48-14.23 12-12.4 11.65-10.7 11.3-9 11.3-7.7L11.3-7.7Q11.3-6.6 11.63-5.95 11.95-5.3 12.75-5.3L12.75-5.3Q13.6-5.3 15-6.2 16.4-7.1 17.8-8.8L17.8-8.8Q17.5-11.6 17.5-13.75L17.5-13.75Q17.5-19.25 19.13-21.7 20.75-24.15 23.2-24.15L23.2-24.15Q25-24.15 25.65-22.95 26.3-21.75 26.3-19.75L26.3-19.75Q26.3-16.8 25.3-14.2 24.3-11.6 22.95-10.05L22.95-10.05Q23.05-7.8 23.88-6.55 24.7-5.3 25.85-5.3L25.85-5.3Q27-5.3 28.23-6.6 29.45-7.9 30.35-10.6 31.25-13.3 31.4-17.45L31.4-17.45Q31.45-20.8 30.95-22.35L30.95-22.35 30.95-22.6Q31.65-23.75 33.18-24.58 34.7-25.4 36.25-25.4L36.25-25.4Q37.35-25.4 38.27-24.78 39.2-24.15 39.75-22.48 40.3-20.8 40.15-17.65L40.15-17.65Q40-13.25 38.7-9.93 37.4-6.6 35.38-4.35 33.35-2.1 31-0.95 28.65 0.2 26.35 0.2L26.35 0.2Q23.75 0.2 21.6-1.23 19.45-2.65 18.35-5.25L18.35-5.25Q16.1-2.9 13.73-1.35 11.35 0.2 8.55 0.2ZM51.85-26.75L51.85-26.75Q49.85-26.75 48.57-27.98 47.3-29.2 47.3-31.05L47.3-31.05Q47.3-33.05 48.8-34.5 50.3-35.95 52.45-35.95L52.45-35.95Q54.45-35.95 55.72-34.7 57-33.45 57-31.6L57-31.6Q57-29.6 55.5-28.18 54-26.75 51.85-26.75ZM48.35 0.2L48.35 0.2Q46.4 0.2 44.85-1.18 43.3-2.55 43.3-5.6L43.3-5.6Q43.3-7.35 43.77-8.88 44.25-10.4 44.87-11.85 45.5-13.3 45.97-14.68 46.45-16.05 46.45-17.4L46.45-17.4Q46.45-18.6 46.05-19.13 45.65-19.65 45.1-19.65L45.1-19.65Q44.25-19.65 43.45-18.55L43.45-18.55 43.1-18.75Q43.3-20.75 44.37-22.18 45.45-23.6 47.02-24.4 48.6-25.2 50.15-25.2L50.15-25.2Q52.05-25.2 53.45-23.98 54.85-22.75 54.85-20L54.85-20Q54.85-18.35 54.37-16.53 53.9-14.7 53.27-12.9 52.65-11.1 52.17-9.55 51.7-8 51.7-6.9L51.7-6.9Q51.7-5.95 52.07-5.55 52.45-5.15 52.9-5.15L52.9-5.15Q53.35-5.15 53.77-5.43 54.2-5.7 54.4-6.05L54.4-6.05 54.75-5.95Q54.75-4.1 53.77-2.73 52.8-1.35 51.35-0.58 49.9 0.2 48.35 0.2ZM67.2 0.45L67.2 0.45Q64.1 0.45 62.05-0.4 60-1.25 59-2.58 58-3.9 58-5.25L58-5.25Q58-7.15 59.7-8.63 61.4-10.1 64.3-10.1L64.3-10.1Q64.3-7.55 64.95-6.03 65.6-4.5 66.62-3.85 67.65-3.2 68.6-3.2L68.6-3.2Q69.75-3.2 70.52-3.88 71.3-4.55 71.3-5.55L71.3-5.55Q71.3-6.95 69.85-8 68.4-9.05 66.1-10.35L66.1-10.35Q64.95-11.05 63.6-11.98 62.25-12.9 61.3-14.23 60.35-15.55 60.35-17.4L60.35-17.4Q60.35-19.35 61.47-20.85 62.6-22.35 64.45-23.38 66.3-24.4 68.45-24.93 70.6-25.45 72.65-25.45L72.65-25.45Q76.5-25.45 78.45-23.9 80.4-22.35 80.4-20.6L80.4-20.6Q80.4-19.1 78.9-17.9 77.4-16.7 74.3-16.7L74.3-16.7Q74.35-19.25 73.25-20.43 72.15-21.6 70.9-21.6L70.9-21.6Q70-21.6 69.4-21.05 68.8-20.5 68.8-19.45L68.8-19.45Q68.8-18.25 69.57-17.38 70.35-16.5 71.52-15.83 72.7-15.15 73.95-14.55L73.95-14.55Q75.65-13.75 77.15-12.85 78.65-11.95 79.6-10.8 80.55-9.65 80.55-8L80.55-8Q80.55-5.75 78.72-3.83 76.9-1.9 73.85-0.73 70.8 0.45 67.2 0.45ZM88.04 10L88.04 10Q86.79 10 85.67 9.35 84.54 8.7 83.82 7.25 83.09 5.8 83.09 3.35L83.09 3.35Q83.09 1 83.72-1.75 84.34-4.5 85.14-7.28 85.94-10.05 86.57-12.55 87.19-15.05 87.19-17L87.19-17Q87.19-18.45 86.79-18.98 86.39-19.5 85.84-19.5L85.84-19.5Q85.34-19.5 84.84-19.2 84.34-18.9 83.99-18.5L83.99-18.5 83.64-18.7Q83.64-20.45 84.67-21.93 85.69-23.4 87.29-24.3 88.89-25.2 90.59-25.2L90.59-25.2Q92.24-25.2 93.24-24.38 94.24-23.55 94.77-22.25 95.29-20.95 95.39-19.45L95.39-19.45Q97.29-22.45 99.54-23.9 101.79-25.35 103.79-25.35L103.79-25.35Q106.49-25.35 108.37-22.8 110.24-20.25 110.24-14.9L110.24-14.9Q110.24-9.9 108.64-6.53 107.04-3.15 104.62-1.48 102.19 0.2 99.69 0.2L99.69 0.2Q97.54 0.2 95.72-1.07 93.89-2.35 92.89-4.8L92.89-4.8Q92.44-2.75 92.12-0.75 91.79 1.25 91.79 3.15L91.79 3.15Q91.79 4.2 91.92 5.2 92.04 6.2 92.34 7.2L92.34 7.2 92.34 7.5Q91.69 8.75 90.52 9.38 89.34 10 88.04 10ZM97.24-4.65L97.24-4.65Q98.44-4.65 99.34-5.6 100.24-6.55 100.89-8.08 101.54-9.6 101.87-11.35 102.19-13.1 102.19-14.75L102.19-14.75Q102.19-16.85 101.64-18.32 101.09-19.8 99.94-19.8L99.94-19.8Q98.49-19.8 96.69-16.88 94.89-13.95 93.89-8L93.89-8Q94.34-6.45 95.24-5.55 96.14-4.65 97.24-4.65ZM131.19 0.25L131.19 0.25Q129.44 0.25 128.14-0.9 126.84-2.05 126.84-4.65L126.84-4.65Q126.84-4.9 126.84-5.15 126.84-5.4 126.89-5.65L126.89-5.65Q125.39-2.65 123.52-1.23 121.64 0.2 119.74 0.2L119.74 0.2Q117.99 0.2 116.44-1.03 114.89-2.25 113.94-4.65 112.99-7.05 112.99-10.45L112.99-10.45Q112.99-13.95 113.97-16.7 114.94-19.45 116.54-21.35 118.14-23.25 120.04-24.23 121.94-25.2 123.74-25.2L123.74-25.2Q125.74-25.2 127.34-23.98 128.94-22.75 129.54-20.1L129.54-20.1Q129.69-20.95 129.77-21.65 129.84-22.35 129.84-22.6L129.84-22.6Q129.89-23.95 131.22-24.6 132.54-25.25 134.14-25.25L134.14-25.25Q135.54-25.25 136.79-24.7 138.04-24.15 138.49-22.85L138.49-22.85 138.59-22.55Q137.99-21.2 137.39-19.3 136.79-17.4 136.29-15.33 135.79-13.25 135.49-11.28 135.19-9.3 135.19-7.8L135.19-7.8Q135.19-6.15 135.54-5.53 135.89-4.9 136.39-4.9L136.39-4.9Q137.24-4.9 137.94-6.1L137.94-6.1 138.34-5.9Q138.34-4.2 137.24-2.8 136.14-1.4 134.49-0.58 132.84 0.25 131.19 0.25ZM123.04-6.1L123.04-6.1Q124.34-6.1 125.92-8.43 127.49-10.75 128.64-15.1L128.64-15.1Q128.74-15.55 128.84-15.98 128.94-16.4 128.99-16.8L128.99-16.8Q128.19-18.65 127.32-19.43 126.44-20.2 125.59-20.2L125.59-20.2Q124.34-20.2 123.27-18.88 122.19-17.55 121.52-15.55 120.84-13.55 120.84-11.55L120.84-11.55Q120.84-8.8 121.47-7.45 122.09-6.1 123.04-6.1Z" opacity="1" transform="matrix(1,0,0,1,0,0)" fill="#080a1d" class="wordmark-text-0" data-fill-palette-color="primary" id="text-0"></path></svg></g></svg></g></svg></g></svg></g><g transform="matrix(1,0,0,1,107.03624547656943,0)"><svg viewBox="0 0 183.4251090468611 183.40027023001102" height="183.40027023001102" width="183.4251090468611"><g><svg xmlns="http://www.w3.org/2000/svg" xmlns:xlink="http://www.w3.org/1999/xlink" version="1.1" x="0" y="0" viewBox="0 0.002333333333333229 32 31.99566666666667" enable-background="new 0 0 32 32" xml:space="preserve" height="183.40027023001102" width="183.4251090468611" class="icon-icon-0" data-fill-palette-color="accent" id="icon-0"><g display="none" fill="#080a1d" data-fill-palette-color="accent"><path display="inline" d="M14 12A2 2 0 1 0 13.999 15.999 2 2 0 0 0 14 12M24 8A8 8 0 0 0 21.066 8.573C19.361 4.705 15.5 2 11 2 4.924 2 0 6.926 0 13 0 18.736 4.393 23.443 10 23.949V19.898C6.617 19.408 4 16.517 4 13 4 9.141 7.141 6 11 6A7.01 7.01 0 0 1 17.406 10.186 4 4 0 0 0 22.539 12.292C23.029 12.099 23.52 12 24 12 26.205 12 28 13.794 28 16S26.205 20 24 20V24A8 8 0 0 0 24 8M14 24A2 2 0 1 0 13.999 27.999 2 2 0 0 0 14 24M14 18A2 2 0 1 0 13.999 21.999 2 2 0 0 0 14 18M20 14A2 2 0 1 0 19.999 17.999 2 2 0 0 0 20 14M20 20A2 2 0 1 0 19.999 23.999 2 2 0 0 0 20 20M20 26A2 2 0 1 0 19.999 29.999 2 2 0 0 0 20 26" fill="#080a1d" data-fill-palette-color="accent"></path></g><g fill="#080a1d" data-fill-palette-color="accent"><path fill-rule="evenodd" clip-rule="evenodd" d="M29.457 2.393C21.383 2.393 18.691 5.084 18.691 5.084V2.393C24.074-2.986 29.457 2.393 29.457 2.393M18.691 7.775C18.691 6.291 20.5 5.084 22.726 5.084 24.957 5.084 26.765 6.291 26.765 7.775 26.765 9.263 24.956 10.466 22.726 10.466 20.5 10.467 18.691 9.264 18.691 7.775M21.383 18.541H24.074V15.85L26.765 18.541 24.074 21.232H18.691L16 18.541 13.309 21.232H7.926L5.234 18.541 7.926 15.85V18.541H10.617L13.308 15.85H18.691zM13.309 7.775C13.309 9.263 11.502 10.466 9.272 10.466S5.235 9.263 5.235 7.775C5.235 6.291 7.044 5.084 9.272 5.084 11.502 5.084 13.309 6.291 13.309 7.775M13.309 2.393V5.084S7.926 2.393 2.543 2.393C2.543 2.393 7.926-2.986 13.309 2.393M18.691 23.924V29.307L16 31.998 13.309 29.307V23.924S16 21.232 18.691 23.924" fill="#080a1d" data-fill-palette-color="accent"></path></g></svg></g></svg></g><g></g></svg></g><defs></defs></svg><rect width="251.48038570415207" height="247.2" fill="none" stroke="none" visibility="hidden"></rect></g></svg></g></svg>