<svg class="animated" id="freepik_stories-top-secret" xmlns="http://www.w3.org/2000/svg" viewBox="0 0 500 500" version="1.1" xmlns:xlink="http://www.w3.org/1999/xlink" xmlns:svgjs="http://svgjs.com/svgjs"><style>svg#freepik_stories-top-secret:not(.animated) .animable {opacity: 0;}svg#freepik_stories-top-secret.animated #freepik--background-complete--inject-14 {animation: 1.5s Infinite  linear heartbeat;animation-delay: 0s;}svg#freepik_stories-top-secret.animated #freepik--speech-bubble--inject-14 {animation: 1.5s Infinite  linear shake;animation-delay: 0s;}svg#freepik_stories-top-secret.animated #freepik--Character--inject-14 {animation: 1.5s Infinite  linear wind;animation-delay: 0s;}            @keyframes heartbeat {                0% {                    transform: scale(1);                }                10% {                    transform: scale(1.1);                }                30% {                    transform: scale(1);                }                40% {                    transform: scale(1);                }                50% {                    transform: scale(1.1);                }                60% {                    transform: scale(1);                }                100% {                    transform: scale(1);                }            }                    @keyframes shake {                10%, 90% {                    transform: translate3d(-1px, 0, 0);                  }                  20%, 80% {                    transform: translate3d(2px, 0, 0);                  }                  30%, 50%, 70% {                    transform: translate3d(-4px, 0, 0);                  }                  40%, 60% {                    transform: translate3d(4px, 0, 0);                  }            }                    @keyframes wind {                0% {                    transform: rotate( 0deg );                }                25% {                    transform: rotate( 1deg );                }                75% {                    transform: rotate( -1deg );                }            }        </style><g id="freepik--background-complete--inject-14" class="animable" style="transform-origin: 249.525px 254.071px;"><g id="elpgtnnv77ovd"><rect x="353.98" y="220.27" width="75.62" height="94.59" style="fill: rgb(250, 250, 250); transform-origin: 391.79px 267.565px; transform: rotate(-76.48deg);" class="animable" id="els7ubedqyvfa"></rect></g><path d="M446.62,241.86l-.45-.09-1.29-.3-5-1.17L421,235.83,354.59,220l.3-.18c-5.26,21.88-11.28,47-17.66,73.52h0L337,293l92,22.17-.28.16c5.38-22.12,9.83-40.47,12.94-53.3,1.57-6.41,2.8-11.44,3.65-14.89.42-1.71.74-3,1-3.92s.35-1.36.35-1.36-.09.44-.29,1.32-.52,2.2-.91,3.9c-.82,3.44-2,8.46-3.52,14.87-3.07,12.87-7.45,31.28-12.74,53.49l-.06.22-.22-.05-92-22.08-.27-.06.07-.27h0c6.4-26.55,12.44-51.64,17.71-73.52l.06-.24.24.06,66.53,16.13L440,240.21l4.94,1.22,1.26.31Z" style="fill: rgb(224, 224, 224); transform-origin: 391.655px 267.55px;" id="elkfpunocwnq" class="animable"></path><g id="el4italcdd5eg"><rect x="358.68" y="223.58" width="66.1" height="87.95" style="fill: rgb(245, 245, 245); transform-origin: 391.73px 267.555px; transform: rotate(-76.48deg);" class="animable" id="elz2pnov0agw"></rect></g><polygon points="341.25 289.4 380.72 256.63 393.21 286.08 408.97 275.74 426.76 309.97 341.25 289.4" style="fill: rgb(235, 235, 235); transform-origin: 384.005px 283.3px;" id="el12nruqk0q82" class="animable"></polygon><path d="M408.25,258.08a6.92,6.92,0,1,1-5.11-8.35A6.91,6.91,0,0,1,408.25,258.08Z" style="fill: rgb(235, 235, 235); transform-origin: 401.524px 256.458px;" id="elp0duu2yiw59" class="animable"></path><path d="M94.93,189.13l71.43-17a12.44,12.44,0,0,1,15,8.76l26.39,103.22,17.69,6.82a12.13,12.13,0,0,1,7.44,8.25l16.27,63.65a12,12,0,0,1-9.07,14.5L118.7,406.25Z" style="fill: rgb(224, 224, 224); transform-origin: 172.204px 289.005px;" id="el44kbhswv6th" class="animable"></path><polygon points="202.09 342.41 75.23 372.65 29.95 195.52 156.8 165.28 202.09 342.41" style="fill: rgb(245, 245, 245); transform-origin: 116.02px 268.965px;" id="elkfdqryjymnr" class="animable"></polygon><polygon points="222.96 367.68 90.08 399.36 42.65 213.82 175.53 182.15 222.96 367.68" style="fill: rgb(255, 255, 255); transform-origin: 132.805px 290.755px;" id="elv5sj7wvw41s" class="animable"></polygon><path d="M22.45,206.41l53.68,210,142.54-34a13.34,13.34,0,0,0,10.1-16.17L205.2,274a16.22,16.22,0,0,0-10.87-11.34l-17.49-5.58-17.12-67c-2.19-8.56-11.15-13.79-20-11.67Z" style="fill: rgb(235, 235, 235); transform-origin: 125.798px 297.174px;" id="elevpoanr6r6a" class="animable"></path><polygon points="243.64 364.83 234.16 367.09 218.52 305.89 227.99 303.63 243.64 364.83" style="fill: rgb(235, 235, 235); transform-origin: 231.08px 335.36px;" id="el6uskndfucos" class="animable"></polygon><path d="M84.57,327.67l-1.73.53c-6.8-20.77.84-43.41,19-56.33a54.29,54.29,0,0,1,61-1l-1,1.45a52.42,52.42,0,0,0-58.92,1C85.38,285.76,78,307.62,84.57,327.67Z" style="fill: rgb(224, 224, 224); transform-origin: 121.612px 295.092px;" id="el9shvvkqqd" class="animable"></path><path d="M164.56,353.66a54.26,54.26,0,0,1-61.16.92l1-1.44a52.38,52.38,0,0,0,59-.89,49,49,0,0,0,18-23.7,47.4,47.4,0,0,0,1-28.66l1.75-.46a49.2,49.2,0,0,1-1,29.69A50.85,50.85,0,0,1,164.56,353.66Z" style="fill: rgb(224, 224, 224); transform-origin: 144.686px 331.498px;" id="el0jfjwaoncoco" class="animable"></path><path d="M147.83,282.35a36.6,36.6,0,0,0-35.09,3.9,33.82,33.82,0,0,0-14.28,31.2Z" style="fill: rgb(224, 224, 224); transform-origin: 123.056px 298.508px;" id="el832acs7hc5w" class="animable"></path><path d="M117.34,344.32a36.63,36.63,0,0,0,37.55-2.78,33.77,33.77,0,0,0,13.9-33.8Z" style="fill: rgb(224, 224, 224); transform-origin: 143.343px 327.982px;" id="el24f4y4iz4xc" class="animable"></path><polygon points="93.55 331.11 91.8 328.8 83.53 334.68 85.28 336.99 93.55 331.11" style="fill: rgb(224, 224, 224); transform-origin: 88.54px 332.895px;" id="eljwymclqxyc" class="animable"></polygon><polygon points="88.81 335.96 99.7 350.24 102.37 348.33 91.49 334.06 88.81 335.96" style="fill: rgb(224, 224, 224); transform-origin: 95.59px 342.15px;" id="el8gqdl2qef1o" class="animable"></polygon><polygon points="171.06 276 169.31 273.7 161.03 279.58 162.79 281.88 171.06 276" style="fill: rgb(224, 224, 224); transform-origin: 166.045px 277.79px;" id="elh3w8879grxd" class="animable"></polygon><polygon points="166.32 280.85 177.21 295.13 179.88 293.23 169 278.95 166.32 280.85" style="fill: rgb(224, 224, 224); transform-origin: 173.1px 287.04px;" id="ely3zcpw3el8b" class="animable"></polygon><path d="M108,340.67c-.7.25-1.42,0-2.19-1l-7.22-9.47c-.76-1-.8-1.75-.35-2.32l-1.93-2.53c-2.18,1.83-2.27,4.29-.26,6.93l7,9.12c2,2.63,4.47,3.28,6.93,1.82Z" style="fill: rgb(224, 224, 224); transform-origin: 102.293px 334.667px;" id="elelvnvlzw548" class="animable"></path><path d="M97.25,324.67l1.93,2.54c.7-.25,1.43,0,2.19,1l7.22,9.47c.77,1,.8,1.75.35,2.32l1.94,2.53c2.17-1.83,2.26-4.3.26-6.93l-7-9.12C102.18,323.86,99.72,323.21,97.25,324.67Z" style="fill: rgb(224, 224, 224); transform-origin: 104.913px 333.218px;" id="elaa1nofzz2us" class="animable"></path><polygon points="105.04 319.39 102.59 321.13 115.97 338.67 118.41 336.93 105.04 319.39" style="fill: rgb(224, 224, 224); transform-origin: 110.5px 329.03px;" id="elxde8o0aa0ne" class="animable"></polygon><path d="M106.53,318.32l-.56.41,1.91,2.5.57-.4c.85-.6,1.61-.53,2.57.72l2,2.63c1,1.26.79,2-.06,2.59l-.56.4,1.91,2.51.56-.4c2.68-1.91,2.83-4.37.69-7.18l-1.74-2.28C111.69,317,109.21,316.42,106.53,318.32Z" style="fill: rgb(224, 224, 224); transform-origin: 111.503px 323.447px;" id="elwjydj5sj53o" class="animable"></path><polygon points="136.74 308.25 133.79 310.35 135.7 312.85 138.65 310.76 136.74 308.25" style="fill: rgb(224, 224, 224); transform-origin: 136.22px 310.55px;" id="el616jvx74qvx" class="animable"></polygon><polygon points="127.22 303.62 124.75 305.37 138.12 322.92 140.6 321.16 127.22 303.62" style="fill: rgb(224, 224, 224); transform-origin: 132.675px 313.27px;" id="elkain3b5t9ra" class="animable"></polygon><polygon points="128.16 302.95 130.07 305.46 133.96 302.69 132.05 300.19 128.16 302.95" style="fill: rgb(224, 224, 224); transform-origin: 131.06px 302.825px;" id="elgi9pmftzsgi" class="animable"></polygon><polygon points="141.53 320.5 145.42 317.73 143.51 315.22 139.62 317.99 141.53 320.5" style="fill: rgb(224, 224, 224); transform-origin: 142.52px 317.86px;" id="el7dq4kyth0u" class="animable"></polygon><path d="M148.65,311.75c-.7.27-1.42,0-2.2-1l-7.22-9.47c-.77-1-.8-1.77-.33-2.34L137,296.42c-2.26,1.84-2.31,4.29-.28,7l6.95,9.12c2,2.67,4.47,3.35,7,1.81Z" style="fill: rgb(224, 224, 224); transform-origin: 142.959px 305.791px;" id="ely8hqb430jum" class="animable"></path><path d="M137.91,295.78l1.93,2.53c.69-.23,1.41,0,2.17,1l1.43,1.88,2.53-1.8-1.3-1.71C142.69,295.11,140.33,294.4,137.91,295.78Z" style="fill: rgb(224, 224, 224); transform-origin: 141.94px 298.139px;" id="elogbsa6un7bn" class="animable"></path><path d="M149.23,308.8c.75,1,.78,1.72.35,2.28l1.95,2.55c2.07-1.82,2.07-4.21.09-6.8l-1.77-2.33-2.53,1.8Z" style="fill: rgb(224, 224, 224); transform-origin: 150.207px 309.065px;" id="elmx0gcanb0ha" class="animable"></path><polygon points="145.36 290.72 143.09 292.34 156.46 309.88 158.73 308.27 145.36 290.72" style="fill: rgb(224, 224, 224); transform-origin: 150.91px 300.3px;" id="elylbv4o0md6b" class="animable"></polygon><path d="M162.86,302l-2.06-2.7c-1.39-1.83-2.84-2.85-4.62-2.47.75-1.43.41-3-1-4.81l-1.05-1.38c-2.07-2.7-4.27-3.18-7-1.21l-.84.59,1.91,2.51L149,292c.95-.67,1.79-.41,2.74.84l1.32,1.73c1.07,1.4.8,2.29-.19,3l-.52.36,1.91,2.51.4-.28c1.21-.87,2.21-.64,3.45,1l2.1,2.76a7.06,7.06,0,0,0,1.89,2l2.72-1.93A6.91,6.91,0,0,1,162.86,302Z" style="fill: rgb(224, 224, 224); transform-origin: 155.555px 297.073px;" id="el8lbw8mylf95" class="animable"></path><polygon points="155.34 283.62 152.87 285.39 166.24 302.93 168.72 301.17 155.34 283.62" style="fill: rgb(224, 224, 224); transform-origin: 160.795px 293.275px;" id="elt0nhsxk81md" class="animable"></polygon><polygon points="164.85 288.27 161.91 290.35 163.82 292.86 166.76 290.77 164.85 288.27" style="fill: rgb(224, 224, 224); transform-origin: 164.335px 290.565px;" id="elfcs6cb4cihr" class="animable"></polygon><polygon points="169.65 300.5 173.54 297.74 171.63 295.24 167.74 298 169.65 300.5" style="fill: rgb(224, 224, 224); transform-origin: 170.64px 297.87px;" id="eld32xzq3utxr" class="animable"></polygon><polygon points="156.28 282.96 158.19 285.47 162.07 282.7 160.16 280.2 156.28 282.96" style="fill: rgb(224, 224, 224); transform-origin: 159.175px 282.835px;" id="el559s8e62w9a" class="animable"></polygon><path d="M130.39,324.78c-.74.34-1.5.14-2.32-.93l-1-1.26-2.53,1.8.82,1.08c2,2.65,4.44,3.33,6.91,1.84Z" style="fill: rgb(224, 224, 224); transform-origin: 128.405px 325.338px;" id="el2qizaxfepoy" class="animable"></path><path d="M121.55,311.29c.7-.27,1.41,0,2.19,1l.55.73,2.53-1.8-.42-.55c-2-2.62-4.35-3.33-6.78-1.92Z" style="fill: rgb(224, 224, 224); transform-origin: 123.22px 310.529px;" id="elt38t6jy22w" class="animable"></path><path d="M121.06,314.22c-.74-1-.82-1.69-.43-2.24l-1.94-2.55c-2.17,1.82-2.18,4.23-.17,6.86,3.82,5,9.57,2,12.32,5.58.71.93.79,1.63.43,2.18l2,2.59c2.12-1.83,2.13-4.23.14-6.84C129.56,314.78,123.82,317.82,121.06,314.22Z" style="fill: rgb(224, 224, 224); transform-origin: 125.959px 318.035px;" id="ely7pi9cxjqtn" class="animable"></path><path d="M91.8,314.78l1.29-.09c1.55-.1,2.49.59,2.6,2S95,319,93.41,319.08l-5,.34c-1.55.11-2.49-.58-2.59-2s.72-2.25,2.27-2.36L89,315l.11,1.39-1,.07c-.69,0-.94.36-.9.82s.32.75,1,.7l5.23-.36c.69-.05.92-.36.89-.83s-.31-.74-1-.69l-1.39.09Z" style="fill: rgb(224, 224, 224); transform-origin: 90.7559px 317.056px;" id="elwy9u6ekldr" class="animable"></path><path d="M88.19,310.61c-1.55-.2-2.32-1.09-2.13-2.52s1.18-2.11,2.72-1.92l5,.63c1.54.19,2.31,1.08,2.12,2.52a2.14,2.14,0,0,1-2.72,1.91Zm5.29-.83c.69.09,1-.17,1-.63s-.15-.79-.84-.88l-5.2-.65c-.69-.09-1,.17-1,.64s.16.79.84.87Z" style="fill: rgb(224, 224, 224); transform-origin: 90.98px 308.725px;" id="elgdlvxk49uvg" class="animable"></path><path d="M90.65,300.52l6.64,2.24L96.84,304l-9.17-3.09.64-1.75,6,.42-5.49-1.85.45-1.24,9.17,3.1L97.92,301Z" style="fill: rgb(224, 224, 224); transform-origin: 93.055px 300.245px;" id="eldpvhc7f7g1" class="animable"></path><path d="M96.07,292.7l1-1.63,1.19.68-1,1.64,3.45,2-.78,1.27-8.35-4.79,2.06-3.35,1.2.68-1.29,2.09Z" style="fill: rgb(224, 224, 224); transform-origin: 96.145px 292.59px;" id="elowrlmrd6oo" class="animable"></path><path d="M96.44,284.86l1-1.13,7.46,6-1,1.13Z" style="fill: rgb(224, 224, 224); transform-origin: 100.67px 287.295px;" id="elcungs3le4s" class="animable"></path><path d="M100.93,280.14l1.83-1.52a2.13,2.13,0,0,1,3.29.32l3.2,3.6c1,1.14,1,2.23-.16,3.19l-1.83,1.52Zm2.06.05,4.53,5.08.65-.54c.37-.31.42-.67,0-1.18l-3.29-3.7c-.45-.51-.84-.5-1.2-.2Z" style="fill: rgb(224, 224, 224); transform-origin: 105.456px 282.619px;" id="el217kzq3uhqyi" class="animable"></path><path d="M112.13,277.07l1.83-1,.68,1.17-1.83,1,1.38,2.4,2.3-1.23.68,1.17-3.64,1.95-4.72-8.19,3.64-2,.67,1.17-2.3,1.24Z" style="fill: rgb(224, 224, 224); transform-origin: 112.99px 277.435px;" id="elhy2fep8qdfr" class="animable"></path><path d="M119.34,272.44l2.1,6.48-1.31.4-2.9-8.95,1.83-.55,3.23,4.9-1.74-5.36,1.3-.39,2.9,8.95-1.49.45Z" style="fill: rgb(224, 224, 224); transform-origin: 120.99px 274.145px;" id="eljsogqpcpec" class="animable"></path><path d="M126.67,268l4.69-.46.14,1.33-1.58.16.85,8-1.52.15-.85-8-1.59.16Z" style="fill: rgb(224, 224, 224); transform-origin: 129.085px 272.36px;" id="elzip046x6msa" class="animable"></path><path d="M136,267.58l1.53.09-.57,9.36-1.52-.08Z" style="fill: rgb(224, 224, 224); transform-origin: 136.485px 272.305px;" id="elslieetnrvo" class="animable"></path><path d="M145.23,278.46l-1.5-.34.14-1.71-1.82-.41-.65,1.6-1.37-.3,3.7-8.8,2.17.48Zm-2.7-3.65,1.44.31.38-4.78Z" style="fill: rgb(224, 224, 224); transform-origin: 142.965px 273.48px;" id="eln63vjxo9l2" class="animable"></path><path d="M152.06,270.91l1.39.6-3.4,7.34,2.29,1-.57,1.22-3.68-1.59Z" style="fill: rgb(224, 224, 224); transform-origin: 150.77px 275.99px;" id="elvar5joz7vgk" class="animable"></path><path d="M175.17,312.14l-1.29.09c-1.55.11-2.49-.58-2.6-2s.73-2.26,2.28-2.36l5-.35c1.55-.1,2.49.58,2.59,2s-.72,2.25-2.27,2.36L178,312l-.1-1.39,1-.07c.69-.05.94-.36.9-.83s-.32-.74-1-.69l-5.23.35c-.69.05-.92.36-.88.83s.3.75,1,.7l1.39-.1Z" style="fill: rgb(224, 224, 224); transform-origin: 176.214px 309.876px;" id="elq2iqex1m1d" class="animable"></path><path d="M178.79,316.32c1.54.19,2.31,1.08,2.12,2.52a2.15,2.15,0,0,1-2.72,1.92l-5-.63a2.1,2.1,0,0,1-2.12-2.52c.19-1.44,1.18-2.11,2.72-1.92Zm-5.3.82c-.69-.08-1,.18-1.05.64s.16.79.84.88l5.2.65c.69.08,1-.18,1.05-.64s-.16-.79-.84-.88Z" style="fill: rgb(224, 224, 224); transform-origin: 175.983px 318.248px;" id="eljqg19fzyq9j" class="animable"></path><path d="M176.32,326.41l-6.64-2.24.45-1.25L179.3,326l-.64,1.74-6-.42,5.49,1.85-.45,1.24-9.17-3.09.52-1.43Z" style="fill: rgb(224, 224, 224); transform-origin: 173.915px 326.665px;" id="elsx5lhb1hxxp" class="animable"></path><path d="M170.9,334.22l-1,1.64-1.19-.68,1-1.64-3.45-2,.78-1.26,8.35,4.78-2.06,3.35-1.19-.68,1.28-2.08Z" style="fill: rgb(224, 224, 224); transform-origin: 170.825px 334.345px;" id="el4dhn2y09c5l" class="animable"></path><path d="M170.53,342.07l-1,1.13-7.46-6,1-1.13Z" style="fill: rgb(224, 224, 224); transform-origin: 166.3px 339.635px;" id="el80etyo4oz4r" class="animable"></path><path d="M166,346.79l-1.83,1.52a2.13,2.13,0,0,1-3.29-.33l-3.2-3.59c-1-1.14-1-2.23.16-3.19l1.83-1.52Zm-2.06-.06-4.53-5.08-.65.55c-.37.3-.42.67,0,1.18l3.29,3.69c.45.51.84.51,1.2.2Z" style="fill: rgb(224, 224, 224); transform-origin: 161.474px 344.309px;" id="elavz6nbdvduu" class="animable"></path><path d="M154.84,349.85l-1.83,1-.68-1.17,1.83-1-1.38-2.4-2.3,1.24-.68-1.17,3.64-2,4.72,8.2-3.64,2-.67-1.17,2.3-1.24Z" style="fill: rgb(224, 224, 224); transform-origin: 153.98px 349.45px;" id="elv8zuz0viwtp" class="animable"></path><path d="M147.63,354.48l-2.1-6.48,1.31-.39,2.9,8.95-1.83.55-3.23-4.91,1.74,5.36-1.3.39-2.9-8.94,1.49-.46Z" style="fill: rgb(224, 224, 224); transform-origin: 145.98px 352.78px;" id="el23i8w6bk2xu" class="animable"></path><path d="M140.3,358.9l-4.69.47-.14-1.34,1.58-.15-.85-8,1.52-.15.85,8,1.59-.16Z" style="fill: rgb(224, 224, 224); transform-origin: 137.885px 354.55px;" id="ela6zqrh2ylcp" class="animable"></path><path d="M131,359.34l-1.53-.08.57-9.37,1.52.09Z" style="fill: rgb(224, 224, 224); transform-origin: 130.515px 354.615px;" id="elbod1h04g3e" class="animable"></path><path d="M121.74,348.47l1.5.33-.14,1.72,1.82.4.65-1.6,1.37.3-3.7,8.81-2.17-.49Zm2.7,3.65L123,351.8l-.38,4.78Z" style="fill: rgb(224, 224, 224); transform-origin: 124.005px 353.45px;" id="elqn7fmnc73f" class="animable"></path><path d="M114.91,356l-1.39-.61,3.4-7.33-2.29-1,.57-1.23,3.68,1.6Z" style="fill: rgb(224, 224, 224); transform-origin: 116.2px 350.915px;" id="elgscawidxx05" class="animable"></path><path d="M43.58,217.8l3.3,12.92-2.61.62L39.71,213.5l3.64-.86,5.71,10-2.73-10.67,2.59-.62,4.56,17.83-3,.71Z" style="fill: rgb(224, 224, 224); transform-origin: 46.595px 221.345px;" id="elhog3nmvo5zm" class="animable"></path><path d="M51.53,213.55a2.58,2.58,0,0,1,2.08-3.49,2.67,2.67,0,0,1,3.52,2.16l1,3.95a2.58,2.58,0,0,1-2.08,3.49,2.68,2.68,0,0,1-3.52-2.16Zm2.89,3.61c.21.82.62,1,1.23.87s.88-.51.67-1.32l-1.07-4.16c-.2-.81-.64-1-1.23-.86s-.87.5-.67,1.32ZM59.13,220l.45,1.76L54,223.13l-.45-1.76Z" style="fill: rgb(224, 224, 224); transform-origin: 55.4681px 216.521px;" id="eltsfyzo71vqs" class="animable"></path><polygon points="138.94 178.6 160.57 219 108.25 245.13 86.62 204.73 138.94 178.6" style="fill: rgb(250, 250, 250); transform-origin: 123.595px 211.865px;" id="elo39sx54ml4" class="animable"></polygon><path d="M138.94,178.61l-.25.13-.73.37-2.83,1.44-10.69,5.38L86.69,204.86l.07-.2,21.64,40.39h0l-.23-.07,52.33-26.1-.06.19-15.62-29.34-4.35-8.2c-.49-.95-.88-1.67-1.14-2.17s-.39-.75-.39-.75.14.23.41.71l1.15,2.13,4.41,8.15,15.79,29.34.06.12-.12.06-52.32,26.15-.15.08-.08-.15h0c-7.8-14.59-15.17-28.38-21.61-40.4l-.07-.14.14-.06,37.9-18.84,10.7-5.3,2.83-1.39.72-.35Z" style="fill: rgb(224, 224, 224); transform-origin: 123.585px 211.98px;" id="elb93uzkz8cgo" class="animable"></path><polygon points="108.69 241.68 157.34 217.4 138.43 182.08 89.79 206.37 108.69 241.68" style="fill: rgb(245, 245, 245); transform-origin: 123.565px 211.88px;" id="elcqt8l2kl4oa" class="animable"></polygon><polygon points="108.69 241.68 113.93 211.25 131.81 219.73 135.02 208.82 157.34 217.4 108.69 241.68" style="fill: rgb(235, 235, 235); transform-origin: 133.015px 225.25px;" id="elseuyhs6k2b" class="animable"></polygon><path d="M127.48,201.08a4.09,4.09,0,0,1-1.85,5.61,4.4,4.4,0,0,1-5.81-1.79,4.1,4.1,0,0,1,1.85-5.61A4.38,4.38,0,0,1,127.48,201.08Z" style="fill: rgb(235, 235, 235); transform-origin: 123.652px 202.987px;" id="elsoxpcektq5" class="animable"></path><path d="M125,202.74a6.23,6.23,0,0,1-6.07-4.62l-3.25-12.68a1.4,1.4,0,0,1,2.72-.7l3.24,12.69a3.46,3.46,0,0,0,4.19,2.41,3.42,3.42,0,0,0,2.16-1.55,3.11,3.11,0,0,0,.36-2.42l-4-15.62a5.87,5.87,0,0,0-7.09-4.1,5.77,5.77,0,0,0-3.65,2.63,5.35,5.35,0,0,0-.62,4.13l.1.38a1.4,1.4,0,0,1-2.71.7l-.1-.39a8.12,8.12,0,0,1,.93-6.27,8.59,8.59,0,0,1,5.4-3.91A8.68,8.68,0,0,1,127,179.56l4,15.62a6,6,0,0,1-.68,4.56,6.15,6.15,0,0,1-3.91,2.82A6.24,6.24,0,0,1,125,202.74Z" style="fill: rgb(224, 224, 224); transform-origin: 120.601px 187.961px;" id="el0yw47bro94rf" class="animable"></path><g id="el373keys2y4z"><rect x="67.53" y="66.49" width="28.79" height="8.3" style="fill: rgb(224, 224, 224); transform-origin: 81.925px 70.64px; transform: rotate(-8.61deg);" class="animable" id="el7fnq8ynf46h"></rect></g><g id="elwfpo9t2a1mm"><rect x="82.26" y="77.88" width="9.31" height="51.48" style="fill: rgb(224, 224, 224); transform-origin: 86.915px 103.62px; transform: rotate(-8.61deg);" class="animable" id="elkx6c0b26f8d"></rect></g><g id="elsolfmcknzyh"><rect x="334.33" y="26.09" width="28.79" height="8.3" style="fill: rgb(224, 224, 224); transform-origin: 348.725px 30.24px; transform: rotate(-8.61deg);" class="animable" id="elg6q9yh6m72r"></rect></g><g id="elf5u9bq3aagi"><rect x="349.07" y="37.48" width="9.31" height="51.48" style="fill: rgb(224, 224, 224); transform-origin: 353.725px 63.22px; transform: rotate(-8.61deg);" class="animable" id="el2kw1tbkud6a"></rect></g><path d="M119.72,116c-2.06-.28-3.52-1.88-4.06-5.45l-5.12-33.77c-.54-3.57.39-5.54,2.27-6.41l-1.37-9c-7.88,1.87-11.43,8.08-10,17.46l4.92,32.52c1.42,9.38,6.65,14.26,14.74,13.72Z" style="fill: rgb(224, 224, 224); transform-origin: 111.115px 93.2402px;" id="elmc8tmxnd6uo" class="animable"></path><path d="M114.66,60.89l1.36,9c2.06.28,3.53,1.88,4.07,5.45l5.11,33.77c.54,3.58-.38,5.54-2.27,6.41l1.37,9c7.89-1.88,11.44-8.09,10-17.47L129.39,74.6C128,65.23,122.74,60.35,114.66,60.89Z" style="fill: rgb(224, 224, 224); transform-origin: 124.637px 92.6848px;" id="ellwi4nxerjvd" class="animable"></path><g id="elm9t0qskehh"><rect x="137.39" y="57.76" width="8.5" height="63.25" style="fill: rgb(224, 224, 224); transform-origin: 141.64px 89.385px; transform: rotate(-8.61deg);" class="animable" id="elhh0maeysovw"></rect></g><path d="M146.27,56.7l-2,.29,1.35,8.94,2-.3c2.93-.44,4.74.74,5.41,5.21l1.42,9.38c.68,4.47-.69,6.14-3.63,6.58l-1.94.3L150.23,96l2-.29c9.21-1.4,12.91-7.53,11.39-17.54l-1.23-8.13C160.82,60.07,155.47,55.3,146.27,56.7Z" style="fill: rgb(224, 224, 224); transform-origin: 154.111px 76.2302px;" id="elo2o4rtuwj" class="animable"></path><g id="elwvbwoib3gk"><rect x="225.31" y="70.97" width="10.24" height="9.03" style="fill: rgb(224, 224, 224); transform-origin: 230.43px 75.485px; transform: rotate(-8.61deg);" class="animable" id="eli5jbohc9doi"></rect></g><g id="elzu2fvj5sojc"><rect x="213.66" y="46.2" width="8.61" height="63.25" style="fill: rgb(224, 224, 224); transform-origin: 217.965px 77.825px; transform: rotate(-8.61deg);" class="animable" id="elk8eptpsxxi"></rect></g><g id="elb132wffumpe"><rect x="221.3" y="44.36" width="13.55" height="9.04" style="fill: rgb(224, 224, 224); transform-origin: 228.075px 48.88px; transform: rotate(-8.61deg);" class="animable" id="elakgmsbk5fpb"></rect></g><g id="elwnrtj2uzeim"><rect x="229.41" y="97.96" width="13.55" height="9.04" style="fill: rgb(224, 224, 224); transform-origin: 236.185px 102.48px; transform: rotate(-8.61deg);" class="animable" id="el7gptkwfmi3i"></rect></g><path d="M259.66,94.79c-2.1-.22-3.59-1.76-4.13-5.38l-5.12-33.77c-.55-3.62.41-5.58,2.35-6.44l-1.37-9c-8.1,1.78-11.53,8-10.09,17.5l4.92,32.52c1.44,9.51,6.56,14.43,14.82,13.73Z" style="fill: rgb(224, 224, 224); transform-origin: 251.01px 72.1078px;" id="eld5zpfz9tqij" class="animable"></path><path d="M254.61,39.73l1.36,9c2,.31,3.45,1.92,4,5.44l1,6.71,8.71-1.32-.92-6.08C267.36,44.26,262.47,39.35,254.61,39.73Z" style="fill: rgb(224, 224, 224); transform-origin: 262.145px 50.2947px;" id="elxt3z50fvdo" class="animable"></path><path d="M265.07,88c.53,3.53-.37,5.43-2.2,6.3l1.37,9.11c7.63-2,10.85-8.1,9.44-17.35l-1.25-8.31L263.72,79Z" style="fill: rgb(224, 224, 224); transform-origin: 268.436px 90.58px;" id="elokk7shpqmzb" class="animable"></path><g id="elz4gnmqgzpwk"><rect x="276.78" y="36.7" width="7.91" height="63.25" style="fill: rgb(224, 224, 224); transform-origin: 280.735px 68.325px; transform: rotate(-8.61deg);" class="animable" id="el5ym4dgohsnj"></rect></g><path d="M308,88.4l-1.46-9.65c-1-6.52-3.21-11-8.13-12.38,3.79-2.68,5.09-7.17,4.11-13.6l-.74-4.91c-1.46-9.65-6.28-13.76-15.83-12.32l-2.87.44,1.35,8.93,2.62-.4c3.27-.49,5,1.26,5.66,5.73l.94,6.16c.76,5-1.09,6.93-4.53,7.45l-1.78.27,1.35,8.93,1.37-.21c4.18-.63,6.35,1.24,7.23,7l1.49,9.83c.77,5.09,1.25,6,2,7.55l9.38-1.42C308.92,93.66,308.5,91.44,308,88.4Z" style="fill: rgb(224, 224, 224); transform-origin: 296.62px 66.2399px;" id="el34y85jvoz8c" class="animable"></path><g id="elxydk08pxl8q"><rect x="310.43" y="31.55" width="8.63" height="63.25" style="fill: rgb(224, 224, 224); transform-origin: 314.745px 63.175px; transform: rotate(-8.61deg);" class="animable" id="eldnmrqcmmdrq"></rect></g><g id="elrh2l6l25kjc"><rect x="322.1" y="56.31" width="10.22" height="9.03" style="fill: rgb(224, 224, 224); transform-origin: 327.21px 60.825px; transform: rotate(-8.61deg);" class="animable" id="elyfbb395usw"></rect></g><g id="elkup890vrqt"><rect x="326.21" y="83.31" width="13.53" height="9.04" style="fill: rgb(224, 224, 224); transform-origin: 332.975px 87.83px; transform: rotate(-8.61565deg);" class="animable" id="eljx4rgzeysrn"></rect></g><g id="el7a6hbbz7qgg"><rect x="318.09" y="29.71" width="13.53" height="9.04" style="fill: rgb(224, 224, 224); transform-origin: 324.855px 34.23px; transform: rotate(-8.61deg);" class="animable" id="elcp05n69wzou"></rect></g><path d="M196.72,104.41c-2.29-.08-3.91-1.59-4.49-5.42l-.67-4.46-8.71,1.32.58,3.83c1.43,9.45,6.5,14.37,14.66,13.75Z" style="fill: rgb(224, 224, 224); transform-origin: 190.47px 104.006px;" id="elt8flgb6pja" class="animable"></path><path d="M193,58.22c2.1.23,3.51,1.83,4.06,5.49l.4,2.6L206.19,65l-.3-2c-1.41-9.33-6.31-14.25-14.23-13.78Z" style="fill: rgb(224, 224, 224); transform-origin: 198.925px 57.7496px;" id="el25n6vuwkuywj" class="animable"></path><path d="M187.87,65.11c-.52-3.46.23-5.4,1.95-6.31l-1.38-9.09c-7.83,1.84-11.1,8-9.68,17.42,2.7,17.87,21.07,17.55,23,30.42.5,3.32-.25,5.21-1.88,6.14l1.4,9.22c7.73-1.92,11-8.07,9.59-17.38C208.19,77.66,189.82,78,187.87,65.11Z" style="fill: rgb(224, 224, 224); transform-origin: 194.813px 81.31px;" id="elw0japzudtdk" class="animable"></path><path d="M344.27,411.25v41h-6.85v4.46h6.85v27.45h128v-25h-9.48v-5.44h9.48v-8.17h4.22v-3.71h-5V411.25Z" style="fill: rgb(245, 245, 245); transform-origin: 406.955px 447.705px;" id="eltdunc6dd9r8" class="animable"></path><polygon points="438.31 411.37 438.31 483.72 472.3 483.72 472.3 458.74 462.82 458.74 462.82 453.76 472.3 453.93 472.3 445.76 476.6 445.77 476.52 441.55 471.51 441.43 471.51 411.25 438.31 411.37" style="fill: rgb(224, 224, 224); transform-origin: 457.455px 447.485px;" id="el4a6u0ojczfs" class="animable"></polygon><path d="M440.73,456.14c0,.25-23.17.45-51.74.45s-51.75-.2-51.75-.45,23.17-.46,51.75-.46S440.73,455.89,440.73,456.14Z" style="fill: rgb(224, 224, 224); transform-origin: 388.985px 456.135px;" id="el2iu4r4nfidf" class="animable"></path><path d="M440.73,452c0,.25-23.17.45-51.74.45s-51.75-.2-51.75-.45,23.17-.46,51.75-.46S440.73,451.72,440.73,452Z" style="fill: rgb(224, 224, 224); transform-origin: 388.985px 451.995px;" id="el5o9wtqqw5fd" class="animable"></path><path d="M447.37,440.75c0,.26-23.16.46-51.74.46s-51.74-.2-51.74-.46,23.16-.45,51.74-.45S447.37,440.5,447.37,440.75Z" style="fill: rgb(224, 224, 224); transform-origin: 395.63px 440.755px;" id="elg7m5cfprbx" class="animable"></path><path d="M448,471.32c0,.25-23.17.45-51.74.45s-51.74-.2-51.74-.45,23.16-.46,51.74-.46S448,471.06,448,471.32Z" style="fill: rgb(224, 224, 224); transform-origin: 396.26px 471.315px;" id="elymjsupbtxs" class="animable"></path><path d="M64.21,443.72v21.71H55.52v2.36h8.69v14.53H226.66V469.1h-12v-2.88h12V461.9H232v-2h-6.35V443.72Z" style="fill: rgb(245, 245, 245); transform-origin: 143.76px 463.02px;" id="el6u46aop60z7" class="animable"></path><polygon points="183.52 443.79 183.52 482.08 226.66 482.08 226.66 468.86 214.62 468.86 214.62 466.22 226.66 466.31 226.66 461.99 232.11 461.99 232 459.76 225.65 459.69 225.65 443.72 183.52 443.79" style="fill: rgb(224, 224, 224); transform-origin: 207.815px 462.9px;" id="elmo2kyf5lrl" class="animable"></polygon><path d="M186.59,467.48c0,.13-29.39.24-65.65.24s-65.65-.11-65.65-.24,29.39-.24,65.65-.24S186.59,467.35,186.59,467.48Z" style="fill: rgb(224, 224, 224); transform-origin: 120.94px 467.48px;" id="el1fviqzerpjt" class="animable"></path><path d="M186.59,465.27c0,.14-29.39.24-65.65.24s-65.65-.1-65.65-.24,29.39-.24,65.65-.24S186.59,465.14,186.59,465.27Z" style="fill: rgb(224, 224, 224); transform-origin: 120.94px 465.27px;" id="el7n492judlpe" class="animable"></path><path d="M195,459.34c0,.13-29.39.24-65.64.24s-65.66-.11-65.66-.24,29.39-.24,65.66-.24S195,459.21,195,459.34Z" style="fill: rgb(224, 224, 224); transform-origin: 129.35px 459.34px;" id="eligdl7uuhjx" class="animable"></path><path d="M195.83,475.51c0,.14-29.39.24-65.64.24s-65.66-.1-65.66-.24,29.39-.24,65.66-.24S195.83,475.38,195.83,475.51Z" style="fill: rgb(224, 224, 224); transform-origin: 130.18px 475.51px;" id="eljqfx65f91bi" class="animable"></path></g><g id="freepik--Table--inject-14" class="animable" style="transform-origin: 256.18px 483.09px;"><path d="M471.9,483.09c0,.14-96.59.26-215.71.26s-215.73-.12-215.73-.26,96.57-.26,215.73-.26S471.9,483,471.9,483.09Z" style="fill: rgb(38, 50, 56); transform-origin: 256.18px 483.09px;" id="elx5pso1r1k3b" class="animable"></path></g><g id="freepik--speech-bubble--inject-14" class="animable" style="transform-origin: 395.325px 145.07px;"><polygon points="398.39 109.51 372.66 84.92 366.56 120.95 335.58 121.76 355.24 153.1 328.14 177.51 365.42 173.37 367.64 208.16 399.62 182.15 438.41 206.86 433.45 170.52 462.61 168.49 441.82 143.81 455.87 118.66 428.49 120.92 424.09 81.81 398.39 109.51" style="fill: rgb(255, 255, 255); transform-origin: 395.375px 144.985px;" id="elpspevn8nxpa" class="animable"></polygon><path d="M398.39,109.51s.58-.65,1.7-1.87,2.79-3,5-5.4L424,81.72l.19-.21,0,.29c1.23,10.76,2.73,24,4.45,39.1l-.19-.15,27.38-2.29.38,0-.19.33-14,25.15,0-.25,20.8,24.68.3.35-.46,0-29.16,2,.23-.28,5,36.34.08.54-.47-.29-38.79-24.71h.3l-4.87,4-27.11,22-.39.31,0-.5q-1.12-17.78-2.21-34.79l.28.24-37.28,4.13-.74.08.55-.5,27.11-24.4,0,.29q-10.44-16.69-19.64-31.35l-.18-.3h.35l31-.78-.17.14c2.41-14.15,4.46-26.13,6.15-36l0-.23.17.16,19.05,18.31,4.92,4.74,1.67,1.63-1.67-1.57c-1.12-1-2.77-2.62-4.94-4.68L372.57,85l.21-.07c-1.66,9.9-3.67,21.88-6,36l0,.14h-.14l-31,.84.16-.3L355.43,153l.1.16-.14.12-27.08,24.43-.19-.42,37.27-4.16.27,0v.27c.73,11.32,1.47,22.94,2.23,34.79l-.42-.18,27.1-22.05,4.87-4,.15-.12.16.1,38.79,24.71-.4.26c-1.7-12.53-3.37-24.77-4.94-36.34l0-.26.27,0,29.15-2-.16.38L441.66,144l-.1-.12.07-.13,14.06-25.14.19.3L428.5,121.1l-.17,0,0-.18c-1.68-15.11-3.15-28.34-4.35-39.12l.22.08-19.1,20.48-5,5.33C399,108.91,398.39,109.51,398.39,109.51Z" style="fill: rgb(38, 50, 56); transform-origin: 395.325px 145.07px;" id="elpgevxhn3ek" class="animable"></path><path d="M370.81,151.26l1.31-2.9a9.82,9.82,0,0,0,5.5,1.74c2.29,0,3.21-.76,3.21-1.79,0-3.12-9.69-1-9.69-7.17,0-2.83,2.29-5.19,7-5.19a11.18,11.18,0,0,1,5.79,1.48l-1.2,2.93a9.31,9.31,0,0,0-4.62-1.32c-2.28,0-3.16.86-3.16,1.91,0,3.07,9.69,1,9.69,7.07,0,2.79-2.31,5.17-7.07,5.17A11.81,11.81,0,0,1,370.81,151.26Z" style="fill: rgb(38, 50, 56); transform-origin: 377.725px 144.571px;" id="eluyuc65hlser" class="animable"></path><path d="M400.15,145.57v7.34h-3.71v-6.77c0-2.07-.95-3-2.6-3s-3.07,1.09-3.07,3.45v6.34h-3.72V135.23h3.72v6.2a5.64,5.64,0,0,1,4.07-1.53C397.87,139.9,400.15,141.66,400.15,145.57Z" style="fill: rgb(38, 50, 56); transform-origin: 393.6px 144.08px;" id="elmzjr0c3me5g" class="animable"></path><path d="M416.62,145.57v7.34H412.9v-6.77c0-2.07-.95-3-2.6-3s-3.07,1.09-3.07,3.45v6.34h-3.71V135.23h3.71v6.2a5.64,5.64,0,0,1,4.08-1.53C414.33,139.9,416.62,141.66,416.62,145.57Z" style="fill: rgb(38, 50, 56); transform-origin: 410.07px 144.08px;" id="el6665tiqf11m" class="animable"></path><path d="M419.43,150.93a2.29,2.29,0,0,1,4.57,0,2.29,2.29,0,0,1-4.57,0Zm.07-14.7h4.43l-.74,10.89h-2.95Z" style="fill: rgb(38, 50, 56); transform-origin: 421.715px 144.649px;" id="el1y8irrddt2f" class="animable"></path></g><g id="freepik--Character--inject-14" class="animable" style="transform-origin: 289.39px 274.082px;"><path d="M186.56,64.54c-14.2-.52-28.4,6.8-34.85,18a30.56,30.56,0,0,0,4,35.46c-7,3-9.65,11.84-5.21,17.44s14.81,6.46,20.35,1.68c-3.33,6.24.33,14.29,7,17.84s15.51,3,22.47-.13,12.25-8.62,16.26-14.55l3-55.24C214.21,73.4,200.76,65.06,186.56,64.54Z" style="fill: rgb(38, 50, 56); transform-origin: 183.692px 110.96px;" id="elkp369acbne" class="animable"></path><path d="M181.78,148.48a16.78,16.78,0,0,1,.75-21.71c-3.27-3.78-2.36-9.82.68-13.77s7.7-6.33,12.19-8.58c2.1-11.46,14.73-19.91,26.28-17.57,5.66-8.87,18.32-10.68,28.6-8.1,2.51.63,5,1.47,7.62,1.37a43,43,0,0,0,5.61-1c10.31-1.73,20.85,5.12,25.23,14.5A18.92,18.92,0,0,0,291.1,98c1.4,1.66,3.47,2.6,5.26,3.86a16.33,16.33,0,0,1,6.76,11.87c.31,4-.82,8.23,1,11.78.91,1.78,2.5,3.19,3.22,5,2.11,5.4-3.81,11.19-2.48,16.83.28,1.14.84,2.2,1.21,3.33a10,10,0,0,1-.37,7.07c-.76,1.71-2,3.29-2.07,5.15,0,1.41.65,2.73,1,4.11.82,3.36-6.11,16.67-9,18.61l-88.42,3.86a16.45,16.45,0,0,1-13.29-13.62,5.88,5.88,0,0,0-.93-3.19,7.31,7.31,0,0,0-2.47-1.47c-5.81-2.82-6.77-10.52-6.39-16.9a7.7,7.7,0,0,0-.15-2.67A9.6,9.6,0,0,0,181.78,148.48Z" style="fill: rgb(38, 50, 56); transform-origin: 242.979px 133.571px;" id="elt5jkt83ntmf" class="animable"></path><path d="M210.25,147.94c-.81-15.46,5.24-33.79,20.52-41.9,9.63-5.11,17.28-5.4,22.41-6.18a36.21,36.21,0,0,1,21,3.6c4.91,1,23.35,16.51,24.91,34,1.72,19.45,3,43.26,1.07,57.86C296.2,224.68,271,229,271,229s-.15,19-.15,19h0c-14.07,21.37-39.11,22.39-55.68,2.94h0Z" style="fill: rgb(255, 191, 157); transform-origin: 255.652px 182.187px;" id="elokd7ozkfl3" class="animable"></path><path d="M258.08,192.42a5.7,5.7,0,0,1,1.71-3.68,6,6,0,0,1,7.14-1c2.29,1.31,2.77,3.81,2.59,6.67h0c-1.09,1.75-1.86,3.46-3.91,3.8-.32,0-.64.09-1,.11a6.52,6.52,0,0,1-4.49-1.37A5.63,5.63,0,0,1,258.08,192.42Z" style="fill: rgb(255, 154, 108); transform-origin: 263.816px 192.663px;" id="ellkyuwsfvby9" class="animable"></path><path d="M287.5,161.62a3.76,3.76,0,0,1-3.56,3.87,3.62,3.62,0,0,1-4-3.29,3.77,3.77,0,0,1,3.56-3.87A3.62,3.62,0,0,1,287.5,161.62Z" style="fill: rgb(38, 50, 56); transform-origin: 283.72px 161.91px;" id="elaaw0u6uwo9j" class="animable"></path><path d="M292.58,148.86c-.45.5-3.38-1.53-7.46-1.42s-7,2.2-7.48,1.71c-.22-.21.24-1.11,1.52-2.08a10.5,10.5,0,0,1,6-2,10,10,0,0,1,5.95,1.74C292.36,147.76,292.81,148.63,292.58,148.86Z" style="fill: rgb(38, 50, 56); transform-origin: 285.112px 147.145px;" id="el8rixssecx66" class="animable"></path><path d="M269.49,181.29c0-.23,2.5-.72,6.6-1.34,1-.13,2-.36,2.18-1.07s-.24-1.85-.77-3q-1.56-3.71-3.28-7.77c-4.55-11.07-7.88-20.18-7.43-20.35s4.52,8.64,9.07,19.71l3.15,7.82c.42,1.16,1.13,2.47.64,4a2.59,2.59,0,0,1-1.68,1.54,6.84,6.84,0,0,1-1.76.29C272.08,181.44,269.51,181.52,269.49,181.29Z" style="fill: rgb(38, 50, 56); transform-origin: 273.283px 164.59px;" id="elsoxet17pn4" class="animable"></path><path d="M271.13,229a76.28,76.28,0,0,1-40-9.48s10.1,20.74,39.63,17.29Z" style="fill: rgb(255, 154, 108); transform-origin: 251.13px 228.359px;" id="el55jpdylugh" class="animable"></path><path d="M289.5,132.79c-.66,1-3.8.42-7.45.81s-6.64,1.41-7.47.54c-.36-.42,0-1.39,1.25-2.41a11.73,11.73,0,0,1,12-1.09C289.25,131.42,289.79,132.31,289.5,132.79Z" style="fill: rgb(38, 50, 56); transform-origin: 282.012px 131.98px;" id="el7ec4vud0ih" class="animable"></path><path d="M241.7,161.94a3.77,3.77,0,0,0,3.89,3.55,3.61,3.61,0,0,0,3.69-3.61,3.78,3.78,0,0,0-3.89-3.55A3.6,3.6,0,0,0,241.7,161.94Z" style="fill: rgb(38, 50, 56); transform-origin: 245.49px 161.91px;" id="elixsoioxr15" class="animable"></path><path d="M236.78,151.79c.5.46,3.24-1.81,7.31-2s7.19,1.59,7.6,1.07c.2-.23-.33-1.08-1.69-1.94a10.5,10.5,0,0,0-6.12-1.46,10,10,0,0,0-5.78,2.24C236.9,150.68,236.53,151.59,236.78,151.79Z" style="fill: rgb(38, 50, 56); transform-origin: 244.218px 149.643px;" id="elkui69i3575" class="animable"></path><path d="M236.21,136c.86.87,3.95-.27,7.72-.55s7,.19,7.7-.81c.3-.49-.27-1.37-1.72-2.15a11.76,11.76,0,0,0-6.38-1.12,11.55,11.55,0,0,0-6,2.22C236.21,134.59,235.83,135.56,236.21,136Z" style="fill: rgb(38, 50, 56); transform-origin: 243.889px 133.813px;" id="elkwf4je8osf" class="animable"></path><path d="M212.57,175.31c-.06-2.18-2.73-7.25-4.92-7.53-5.83-.76-16.29,0-16,14.54.36,19.93,21,15.34,21,14.76S212.77,182.82,212.57,175.31Z" style="fill: rgb(255, 191, 157); transform-origin: 202.165px 182.761px;" id="elap3zdxi0qvr" class="animable"></path><path d="M206.49,190c-.09-.07-.35.24-.93.52a3.48,3.48,0,0,1-2.63.1c-2.15-.73-4-4-4.16-7.63a11.31,11.31,0,0,1,.89-5,4,4,0,0,1,2.6-2.71,1.78,1.78,0,0,1,2.09.91c.28.55.16,1,.26,1s.43-.35.25-1.17a2.19,2.19,0,0,0-.81-1.23,2.66,2.66,0,0,0-2-.47c-1.55.13-2.92,1.57-3.61,3.15a11.75,11.75,0,0,0-1.12,5.58c.2,4,2.35,7.73,5.28,8.52a3.81,3.81,0,0,0,3.21-.59C206.46,190.51,206.56,190.06,206.49,190Z" style="fill: rgb(255, 154, 108); transform-origin: 201.908px 182.991px;" id="elabh13u8npfp" class="animable"></path><path d="M303.58,137.64c-4.14-2.41-6.83-5.77-6.69-10.52-2.69.86-5.52-2.51-7.15-4.78s-3.59-3.39-3.54-6.17a3.17,3.17,0,0,0-.25-1.62c-.43-.75-1.39-1-2.23-1.21a13.4,13.4,0,0,1-9.13-9.06,28.88,28.88,0,0,1-13.77,2.6,11,11,0,0,1-18.5-.34,9.74,9.74,0,0,1-6.43,4.94,29.19,29.19,0,0,1-8.35.66,11.41,11.41,0,0,1-7.28,13.13c-.72.24-1.54.47-1.85,1.15s.07,1.49.37,2.21c1.87,4.51-1,10.34-5.81,11.6,3.36,2.45,3.17,8.3-.35,10.53-.72.46-1.66,1-1.53,1.84a1.81,1.81,0,0,0,.47.84c1.55,1.93,3.1,4.05,3.35,6.51s-1.37,5.26-3.86,5.43c1.34,1.12,2.6,2.57,2.67,4.3s-1.65,3.54-3.31,2.95c-.7-.24-10.79-1.95-11.25-2.53-5.9-7.51,1.07-16.15,1.39-25.65s3.44-18.78,8-27.14a45.09,45.09,0,0,1,6.92-9.78,59.94,59.94,0,0,1,10.88-8.34c5-3.26,10.17-6.52,16-8,10.82-2.8,22.22.82,32.49,5.2A47.82,47.82,0,0,1,286,102.47c4,3.16,6.93,7.36,9.54,11.68,3.76,6.25,6.92,13,7.81,20.22" style="fill: rgb(38, 50, 56); transform-origin: 250.189px 131.474px;" id="elt2rpg9v1wz" class="animable"></path><path d="M307.35,130.57a7.62,7.62,0,0,0-1.14-2.11c-.44-.65-1.07-1.4-1.66-2.38a9,9,0,0,1-1.23-3.69,28.57,28.57,0,0,1-.05-4.93,21.6,21.6,0,0,0-.31-5.92,16.69,16.69,0,0,0-2.82-6.21,16.45,16.45,0,0,0-2.55-2.75,25.06,25.06,0,0,0-3.25-2.26,12.75,12.75,0,0,1-3.14-2.53,16.6,16.6,0,0,1-2-3.7,25.87,25.87,0,0,0-5.1-7.58,26.2,26.2,0,0,0-8-5.74,23.79,23.79,0,0,0-4.9-1.67,21.92,21.92,0,0,0-5.32-.46,25.19,25.19,0,0,0-2.71.29c-.9.16-1.78.37-2.67.55a13.22,13.22,0,0,1-5.39.15c-1.81-.31-3.6-.9-5.48-1.31A35.77,35.77,0,0,0,238,77.57a30.76,30.76,0,0,0-5.88,1.23,19.84,19.84,0,0,0-10,6.89l-.72,1,.32-.14a22.85,22.85,0,0,0-17.27,3.93,22.19,22.19,0,0,0-9.36,13.89l.16-.2a62.56,62.56,0,0,0-7,3.87,21.32,21.32,0,0,0-5.64,5.26,13.52,13.52,0,0,0-2.43,6.94,9.29,9.29,0,0,0,2.11,6.69v-.33A16.37,16.37,0,0,0,178,137a16.76,16.76,0,0,0,2.36,9.85,16.13,16.13,0,0,0,1.4,1.93c.5.6,1,1.15,1.43,1.75a4,4,0,0,1,.77,1.93,11,11,0,0,1,0,2.07,33.13,33.13,0,0,0,.42,7.56,15.7,15.7,0,0,0,2.14,5.7,9.74,9.74,0,0,0,3.23,3.15c1.06.66,2,.89,2.51,1.25a4.65,4.65,0,0,1,.75.58,2.56,2.56,0,0,0-.71-.65c-.52-.38-1.45-.65-2.47-1.3a9.9,9.9,0,0,1-3.12-3.14,15.68,15.68,0,0,1-2-5.64,32.2,32.2,0,0,1-.35-7.49,12.6,12.6,0,0,0,0-2.13,4.65,4.65,0,0,0-.82-2.1,22.66,22.66,0,0,0-1.45-1.79,15,15,0,0,1-1.34-1.89,16.28,16.28,0,0,1-2.26-9.61,15.91,15.91,0,0,1,4.27-10l.16-.16-.15-.17a8.89,8.89,0,0,1-2-6.34,13.06,13.06,0,0,1,2.36-6.66,20.67,20.67,0,0,1,5.5-5.1,63.79,63.79,0,0,1,6.92-3.83l.13-.06,0-.14A21.62,21.62,0,0,1,204.82,91a22.26,22.26,0,0,1,16.8-3.82l.19,0,.13-.17.69-1a19.33,19.33,0,0,1,9.68-6.67,30,30,0,0,1,5.76-1.21,34.09,34.09,0,0,1,5.8-.1,35.13,35.13,0,0,1,5.65.82c1.84.4,3.64,1,5.51,1.31a14.21,14.21,0,0,0,2.83.22,16.92,16.92,0,0,0,2.78-.38c.9-.18,1.78-.39,2.65-.55a21.5,21.5,0,0,1,2.64-.28,21.22,21.22,0,0,1,5.17.43,23.49,23.49,0,0,1,4.79,1.62,26.46,26.46,0,0,1,12.87,13,16.71,16.71,0,0,0,2.09,3.8,13,13,0,0,0,3.26,2.61,24.49,24.49,0,0,1,3.21,2.2,16.26,16.26,0,0,1,5.31,8.74,21.27,21.27,0,0,1,.35,5.82,28.87,28.87,0,0,0,.1,5,9.38,9.38,0,0,0,1.31,3.75c.63,1,1.26,1.73,1.72,2.36a12.48,12.48,0,0,1,1,1.5C307.27,130.39,307.34,130.58,307.35,130.57Z" style="fill: rgb(69, 90, 100); transform-origin: 242.653px 125.082px;" id="eln4wwbkbw55g" class="animable"></path><path d="M231,82.22s.52-.32,1.49-.82A13.67,13.67,0,0,1,236.88,80a13,13,0,0,1,6.65.78A13.09,13.09,0,0,1,249.71,86a10.77,10.77,0,0,1,1.07,2.22,2.52,2.52,0,0,1-.09,2.11l-.48.69.81-.25a8.43,8.43,0,0,1,6.26.56A8,8,0,0,1,260.8,95a8.8,8.8,0,0,1,.88,3.26c.05.8,0,1.24,0,1.24s0-.1.08-.31a5,5,0,0,0,.08-.93,8.13,8.13,0,0,0-.74-3.42,8.22,8.22,0,0,0-3.62-3.88,8.9,8.9,0,0,0-6.68-.68l.34.44a3,3,0,0,0,.17-2.6,11.08,11.08,0,0,0-1.12-2.36,13.34,13.34,0,0,0-6.49-5.44,13,13,0,0,0-6.93-.69,12.76,12.76,0,0,0-4.41,1.61,9.15,9.15,0,0,0-1.05.71C231.12,82.1,231,82.2,231,82.22Z" style="fill: rgb(69, 90, 100); transform-origin: 246.42px 89.4692px;" id="eloidurd5omd" class="animable"></path><path d="M198.94,106s.22.29.72.7a13.34,13.34,0,0,0,2.33,1.5,9.65,9.65,0,0,0,4,1.09,7.29,7.29,0,0,0,5-1.63l-.45-.06.61.8c.23.26.48.51.71.77a12.24,12.24,0,0,0,5.13,3,12.67,12.67,0,0,0,4.82.47,11.62,11.62,0,0,0,3.16-.8,3.91,3.91,0,0,0,1-.59,16.94,16.94,0,0,1-4.23,1,12.67,12.67,0,0,1-4.62-.57,12,12,0,0,1-4.86-2.86c-.22-.24-.46-.47-.67-.72l-.58-.75-.21-.27-.24.21a6.83,6.83,0,0,1-4.56,1.55,9.65,9.65,0,0,1-3.89-.92C200.08,106.84,199,105.89,198.94,106Z" style="fill: rgb(69, 90, 100); transform-origin: 212.455px 109.344px;" id="elw6e3u90bauc" class="animable"></path><path d="M188.79,124.74s0,.13.06.37a3.64,3.64,0,0,0,.48,1,5.37,5.37,0,0,0,3.31,2.05,10.41,10.41,0,0,0,5.74-.78c1-.39,2.07-.78,3.15-1.32a5.53,5.53,0,0,0,2.71-2.59l.12-.32-.47.16a23.34,23.34,0,0,0,6.08,3.38,10.51,10.51,0,0,0,5.68.43,7.69,7.69,0,0,0,3.44-1.66,5,5,0,0,0,.71-.76,1,1,0,0,0,.19-.31c-.05,0-.35.36-1.05.89a7.89,7.89,0,0,1-3.38,1.43,10.36,10.36,0,0,1-5.41-.54,23.44,23.44,0,0,1-5.9-3.35l-.33-.24-.14.4-.1.27a5,5,0,0,1-2.43,2.29c-1,.52-2.08.93-3.07,1.33a10.31,10.31,0,0,1-5.46.87,5.34,5.34,0,0,1-3.2-1.77A9.71,9.71,0,0,1,188.79,124.74Z" style="fill: rgb(69, 90, 100); transform-origin: 204.39px 125.426px;" id="elp8ih70keduh" class="animable"></path><path d="M257.33,188.69c.48-.32,2.48,3,6.75,3.63s7.6-1.8,7.91-1.35c.17.18-.41,1.11-1.89,2a9.76,9.76,0,0,1-6.49,1.32,8.42,8.42,0,0,1-5.44-3.17C257.21,189.85,257.09,188.81,257.33,188.69Z" style="fill: rgb(38, 50, 56); transform-origin: 264.621px 191.531px;" id="elxckv2ep0uk" class="animable"></path><path d="M206.51,209.52a7.81,7.81,0,0,1-5.83-12.89l.76.65a6.69,6.69,0,1,0,5.07-2.35v-1a7.8,7.8,0,0,1,0,15.59Z" style="fill: rgb(69, 90, 100); transform-origin: 206.416px 201.725px;" id="elqmf04ek4l9" class="animable"></path><path d="M309.58,376.74c1.8,0,66-12.89,66-12.89s-17.5-99.18-51-104.59L305.1,339.91l2.24,36.83Z" style="fill: rgb(69, 90, 100); transform-origin: 340.34px 318px;" id="elfyq9iwgt89e" class="animable"></path><path d="M336.53,377.92c7.62-39.2-3.89-63.12-3.89-63.12l-8.1-55.54-44.16-9s-7.24,13.33-34.16,13c-14-.2-32.06-23.45-32.06-23.45l-39.73,10.49,9.12,153.06s-11.27,42.86-24.24,79.8l182.57.49c-3.17-18.78-16.25-76.83-16.25-76.83C329.21,397.94,335.61,385.91,336.53,377.92Z" style="fill: rgb(69, 90, 100); transform-origin: 250.595px 361.73px;" id="elr25lre7hhh" class="animable"></path><g id="elozj12egbmcn"><g style="opacity: 0.3; transform-origin: 302.81px 424.87px;" class="animable" id="ela1rd3vyi3xi"><polygon points="274.64 421.62 276.54 430.86 330.98 430.86 328.34 418.88 274.64 421.62" id="elbx4dhkh2d8" class="animable" style="transform-origin: 302.81px 424.87px;"></polygon></g></g><path d="M317.73,283.61a1.71,1.71,0,0,1,.15.29l.4.86,1.48,3.33c1.3,2.89,3.23,7,5.63,12.16s5.24,11.25,8,18.23c1.35,3.49,2.66,7.21,3.75,11.15a67.89,67.89,0,0,1,2.15,12.44,122.63,122.63,0,0,1-.5,24.35A152.76,152.76,0,0,1,335.3,386a92.33,92.33,0,0,1-4,12.8c-.55,1.49-1.12,2.59-1.47,3.34-.17.35-.31.64-.42.85s-.15.29-.15.29a.91.91,0,0,1,.11-.31l.36-.87c.33-.77.86-1.88,1.38-3.37a99.44,99.44,0,0,0,3.84-12.81,158,158,0,0,0,3.34-19.56,125.74,125.74,0,0,0,.45-24.25,68.74,68.74,0,0,0-2.12-12.36c-1.08-3.91-2.37-7.62-3.7-11.11-2.7-7-5.52-13.09-7.86-18.24s-4.24-9.33-5.47-12.24c-.63-1.45-1.09-2.59-1.4-3.37l-.35-.88A1.82,1.82,0,0,1,317.73,283.61Z" style="fill: rgb(38, 50, 56); transform-origin: 328.701px 343.445px;" id="elsynowxfsgcb" class="animable"></path><path d="M139.57,370.61s-4,11.33,24.9,8.95,36.93-20.48,36.93-20.48l-5.73-22-36.91-8.6-15.43,12.68Z" style="fill: rgb(69, 90, 100); transform-origin: 170.391px 354.184px;" id="el7r0yzx3q4uf" class="animable"></path><g id="el071donbaytz7"><g style="opacity: 0.3; transform-origin: 170.391px 354.184px;" class="animable" id="elkiewvd1nmj"><path d="M139.57,370.61s-4,11.33,24.9,8.95,36.93-20.48,36.93-20.48l-5.73-22-36.91-8.6-15.43,12.68Z" id="elu18s29k7dns" class="animable" style="transform-origin: 170.391px 354.184px;"></path></g></g><g id="elfvazmdbmtal"><g style="opacity: 0.3; transform-origin: 227.294px 348.631px;" class="animable" id="elmqzs8n6qe1i"><path d="M275,263c-2.73-3.21-9.57-1.85-9.15,2.36L177.4,423.85c13.6,8.07,29.81,16,44.49,10.19,14.25-5.68,20.87-22,25.63-36.71,12.88-39.88,23.23-80.67,29.23-122.18C277.35,271,277.76,266.19,275,263Z" id="ely96713jvbzo" class="animable" style="transform-origin: 227.294px 348.631px;"></path></g></g><path d="M139.78,317.37c0,2,25.13,75.18,30.75,91,7.43,21,40.16,33.29,57.2,9.3,18.49-26,46.71-137.3,46.71-137.3l-25.68-10.55-45.54,92.07-24.54-94.09Z" style="fill: rgb(255, 191, 157); transform-origin: 207.11px 349.31px;" id="elg02iuicjga" class="animable"></path><path d="M273.49,285.35s6.5-13,6.88-13.64c.09-.15-.3-.42-.12-.28a3.47,3.47,0,0,0,4.05-.15c3-2.19,8.17-5.49,9.13-7.92a9.42,9.42,0,0,0,3.94-7c.42-4.86,1-16,1-16s4.93-1.8,4.58-6-6.9-3.18-6.9-3.18-1.17-5-4.8-6.09-16.58-.8-16.58-.8-.41-17.12-.67-24.22a25.09,25.09,0,0,0-2.67-11.23,3.34,3.34,0,0,0-6.28,1.22,41.34,41.34,0,0,0,.11,8.55c1,10-4.95,28.63-5.52,29.26s-7,6.31-6.72,13-2.9,26.61-7.55,36.28" style="fill: rgb(255, 191, 157); transform-origin: 274.169px 236.202px;" id="el3lemofmwoge" class="animable"></path><path d="M245.39,277.09s.07-.2.22-.56.4-.91.68-1.63c.55-1.45,1.33-3.61,2.12-6.45s1.63-6.35,2.4-10.46a120.41,120.41,0,0,0,1.88-14.08c0-.66.07-1.32.07-2s0-1.35,0-2.06a13.07,13.07,0,0,1,1-4.16,23.34,23.34,0,0,1,5.13-7.39l.41-.41.2-.2.11-.22c.14-.32.28-.7.41-1.07.26-.73.5-1.49.74-2.25q.71-2.29,1.34-4.69c.83-3.19,1.59-6.5,2.16-9.93a47.12,47.12,0,0,0,.71-10.6c-.16-1.81-.32-3.67-.31-5.54,0-.94,0-1.88.11-2.83a4.1,4.1,0,0,1,1.06-2.74,3.7,3.7,0,0,1,2.79-1.05,3.58,3.58,0,0,1,2.65,1.42,18.46,18.46,0,0,1,2.19,5.49,30.8,30.8,0,0,1,.81,5.91c.06,2,.12,4,.18,6,.17,6.35.34,12.59.5,18.65l-.26-.25c4.31-.06,8.54-.05,12.67.25a29.07,29.07,0,0,1,3.08.37,5.81,5.81,0,0,1,2.85,1.27,10.5,10.5,0,0,1,3,5.2l-.28-.18a10.81,10.81,0,0,1,4.39.24,4.36,4.36,0,0,1,1.91,1.12,3.66,3.66,0,0,1,.87,2,5.31,5.31,0,0,1-.28,2.13,6.31,6.31,0,0,1-1.08,1.82,9.17,9.17,0,0,1-3.37,2.3l.15-.19q-.45,6.76-.85,12.85c-.06,1-.13,2-.19,3a11.15,11.15,0,0,1-.64,2.88,9.43,9.43,0,0,1-3.42,4.41l.08-.08a9.27,9.27,0,0,1-2.36,2.87c-.9.8-1.83,1.5-2.73,2.18s-1.81,1.29-2.68,1.9l-1.28.9a4.26,4.26,0,0,1-1.37.71,3.38,3.38,0,0,1-2.87-.37l-.15-.1,0,0c-.09.2.23-.24.17-.2h0l.07.07a.55.55,0,0,1,.11.2.23.23,0,0,1,0,.18l0,.08-.3.6-.59,1.15-2.1,4.12c-1.26,2.45-2.24,4.36-2.92,5.67l-.76,1.47c-.18.33-.28.49-.28.49s.07-.18.23-.51l.72-1.49,2.84-5.73,2.06-4.14.58-1.16.3-.6s0-.07.06-.06,0,0,0,0l-.06-.09-.05-.05h0c-.06,0,.25-.42.16-.21l0,0,.14.1a3.12,3.12,0,0,0,2.63.31,3.91,3.91,0,0,0,1.29-.68l1.28-.91c.86-.61,1.75-1.24,2.65-1.91s1.82-1.39,2.7-2.18a8.67,8.67,0,0,0,2.25-2.75l0-.05,0,0a9.17,9.17,0,0,0,3.24-4.24c.7-1.75.63-3.76.79-5.78q.38-6.08.8-12.85v-.14l.14,0a8.64,8.64,0,0,0,3.17-2.2,5.34,5.34,0,0,0,1-1.67,4.82,4.82,0,0,0,.24-1.93,3.13,3.13,0,0,0-.74-1.76,3.79,3.79,0,0,0-1.71-1,10.06,10.06,0,0,0-4.17-.22l-.21,0-.06-.22a10.07,10.07,0,0,0-2.88-4.93c-1.47-1.31-3.64-1.3-5.65-1.52-4.09-.29-8.32-.3-12.62-.24h-.25v-.26c-.17-6.06-.34-12.29-.51-18.65-.16-4,0-8-1-11.79a18.3,18.3,0,0,0-2.1-5.31,3,3,0,0,0-2.27-1.21,3.17,3.17,0,0,0-2.4.89,3.53,3.53,0,0,0-.91,2.43c-.08.92-.12,1.85-.11,2.78,0,1.85.14,3.68.29,5.5a46.83,46.83,0,0,1-.73,10.72c-.58,3.45-1.34,6.77-2.19,10-.42,1.6-.88,3.17-1.35,4.7-.25.77-.49,1.53-.76,2.27-.13.38-.27.74-.44,1.13a2.91,2.91,0,0,1-.17.3l-.21.22-.41.41a23,23,0,0,0-5.07,7.23,12.67,12.67,0,0,0-1,4c0,.67,0,1.36,0,2s0,1.35-.07,2a121.1,121.1,0,0,1-2,14.11c-.81,4.12-1.68,7.63-2.5,10.47a67,67,0,0,1-2.21,6.43c-.3.71-.56,1.24-.73,1.61S245.39,277.09,245.39,277.09Z" style="fill: rgb(255, 154, 108); transform-origin: 274.292px 236.032px;" id="ela12r8dj69os" class="animable"></path><path d="M291.75,264.53A2.36,2.36,0,0,1,292,264c.19-.38.44-.86.73-1.45a24.46,24.46,0,0,0,2.15-5.52,11.56,11.56,0,0,0,.23-4,8,8,0,0,0-1.71-4.21,11.61,11.61,0,0,0-4.19-2.87c-1.63-.77-3.37-1.47-5.17-2.13s-3.59-1.24-5.31-1.82a44.37,44.37,0,0,0-5-1.43c-3.22-.7-6.33-.49-8.5.75a8.14,8.14,0,0,0-3.91,4.21,9.82,9.82,0,0,0-.44,2.11,2.74,2.74,0,0,1,0-.57,6.06,6.06,0,0,1,.28-1.61A8.11,8.11,0,0,1,265,241a9.74,9.74,0,0,1,4-1.22,16.39,16.39,0,0,1,4.78.32,43.42,43.42,0,0,1,5.06,1.42c1.73.57,3.51,1.15,5.33,1.81s3.56,1.37,5.21,2.16a11.84,11.84,0,0,1,4.34,3,8.4,8.4,0,0,1,1.77,4.46,11.93,11.93,0,0,1-.3,4.16,22.84,22.84,0,0,1-2.33,5.53c-.34.62-.62,1.09-.82,1.41A1.83,1.83,0,0,1,291.75,264.53Z" style="fill: rgb(255, 154, 108); transform-origin: 278.21px 252.129px;" id="elckmk0tymxdh" class="animable"></path><path d="M274.44,283.46a2.12,2.12,0,0,1,.22-.53c.18-.39.42-.88.71-1.48s.7-1.42,1.12-2.34a17.22,17.22,0,0,0,1.13-3.22,19.13,19.13,0,0,0,.29-4.13,20.19,20.19,0,0,0-.63-4.72c-.73-3.3-2.12-6.81-2.7-10.78l0-.22.23-.06a6,6,0,0,0,1.08-.42,5.63,5.63,0,0,0,2.76-3.31l.18-.6.29.55a5.3,5.3,0,0,0,4.63,2.76h.39l-.16.35a9.92,9.92,0,0,0-.44,7.06l.06.21-.21.06a5.74,5.74,0,0,0-4.27,6.21,4.62,4.62,0,0,0,.86,2.09c.31.43.51.64.49.65s-.06,0-.17-.13-.24-.24-.42-.44a4.63,4.63,0,0,1-1-2.14,6,6,0,0,1,.62-3.64,6.08,6.08,0,0,1,3.78-3l-.15.27a10.26,10.26,0,0,1,.4-7.39l.22.34a5.8,5.8,0,0,1-5.09-3l.47-.05a6,6,0,0,1-3,3.63,5.83,5.83,0,0,1-1.19.46l.19-.28c.56,3.86,1.93,7.4,2.65,10.74a20.71,20.71,0,0,1,.58,4.82A18.67,18.67,0,0,1,278,276a15.89,15.89,0,0,1-1.23,3.26c-.44.92-.85,1.69-1.19,2.31s-.61,1.11-.8,1.44A3,3,0,0,1,274.44,283.46Z" style="fill: rgb(255, 154, 108); transform-origin: 279.29px 267.555px;" id="elmj7zqg6z4so" class="animable"></path><path d="M297.07,242.57a13.22,13.22,0,0,0-.45-1.76A8.9,8.9,0,0,0,293.7,237a13.54,13.54,0,0,0-6.73-2.54c-2.73-.39-5.8-.25-9-.48a21.42,21.42,0,0,1-4.66-.81c-1.47-.44-2.82-1-4.15-1.34a7.9,7.9,0,0,0-3.8-.23,5.48,5.48,0,0,0-2.82,1.65,13.45,13.45,0,0,0-2.4,4.27,13.28,13.28,0,0,1-.65,1.7,2.65,2.65,0,0,1,.09-.46c.07-.3.2-.75.37-1.31a12.6,12.6,0,0,1,2.32-4.45,5.81,5.81,0,0,1,3-1.82,8.09,8.09,0,0,1,4,.19c1.37.35,2.74.88,4.18,1.31a20.8,20.8,0,0,0,4.55.78c3.18.23,6.27.1,9.06.52a13.7,13.7,0,0,1,6.89,2.73,8.74,8.74,0,0,1,2.88,4.09,7.09,7.09,0,0,1,.27,1.34A1.59,1.59,0,0,1,297.07,242.57Z" style="fill: rgb(255, 154, 108); transform-origin: 278.297px 236.792px;" id="ellmaycfch6tj" class="animable"></path><path d="M265.92,224.51a44.56,44.56,0,0,0,4.85.16c2.68-.18,4.73-1,4.79-.85a11.88,11.88,0,0,1-9.64.69Z" style="fill: rgb(255, 154, 108); transform-origin: 270.74px 224.511px;" id="el1lt2qllt0zei" class="animable"></path><path d="M298.39,240.36c-.17,0-.31-2.2-1-4.79s-1.75-4.53-1.6-4.61a11.47,11.47,0,0,1,2.11,4.48A12.67,12.67,0,0,1,298.39,240.36Z" style="fill: rgb(255, 154, 108); transform-origin: 297.113px 235.66px;" id="elnygnbvpf0xq" class="animable"></path><path d="M139.57,370.61c0-1.24-9.67-66.81-.83-90.13,9-23.74,35.69-30.25,35.69-30.25l23.95,92.31a59,59,0,0,0-34.82,3.86C148.2,353.18,139.57,370.61,139.57,370.61Z" style="fill: rgb(69, 90, 100); transform-origin: 166.698px 310.42px;" id="elnlwoc80aqn" class="animable"></path><path d="M183.55,282.57c.14,0,3.57,13.36,7.67,29.92s7.3,30,7.16,30.05-3.58-13.36-7.67-29.92S183.41,282.6,183.55,282.57Z" style="fill: rgb(38, 50, 56); transform-origin: 190.965px 312.555px;" id="el9o5vdkz3tl8" class="animable"></path><path d="M196.2,394.36a7.12,7.12,0,0,1-.45-1.31,13.9,13.9,0,0,1-.42-1.58,21.29,21.29,0,0,1-.4-2.12c-.12-.79-.24-1.66-.29-2.6s-.07-1.95-.08-3a34.59,34.59,0,0,1,3-13.39c.46-1,.88-1.87,1.36-2.69s.93-1.56,1.37-2.23.89-1.24,1.27-1.75.74-.93,1-1.26a6.51,6.51,0,0,1,1-1c.08.07-1.26,1.52-3,4.2-.42.67-.88,1.41-1.3,2.24s-.86,1.72-1.3,2.67a35.9,35.9,0,0,0-3,13.21c0,1,0,2,0,3s.13,1.79.22,2.58C195.7,392.45,196.31,394.34,196.2,394.36Z" style="fill: rgb(255, 154, 108); transform-origin: 199.062px 377.895px;" id="elj9gz5g5ctv" class="animable"></path><path d="M420.53,323.61l-89.31.58h0L317.09,310.1a13.18,13.18,0,0,0-9.32-3.87H273.44a3.94,3.94,0,0,0-3.91,4.2l2.27,105.11a6.36,6.36,0,0,0,6.31,6.26l129.2.11A15.21,15.21,0,0,0,422.45,407l2-79.32A3.93,3.93,0,0,0,420.53,323.61Z" style="fill: #FFFFFF; transform-origin: 346.987px 364.07px;" id="elgbgeueynf7" class="animable"></path><g id="elnfpt5lnhfe"><g style="opacity: 0.3; transform-origin: 277.755px 364.39px;" class="animable" id="elv020yetsv8s"><path d="M281,317.74l-.53-1.51s-2.17-.22-3.35,7.32-4.08,89-4.08,89l9.43-92.35Z" id="elukd21gsq8g" class="animable" style="transform-origin: 277.755px 364.39px;"></path></g></g><path d="M276.4,416l142.82-9.13a3.2,3.2,0,0,0,3-3l4.54-88.07a3.19,3.19,0,0,0-3.17-3.38H283.93a3.19,3.19,0,0,0-3.16,3L273,412.54A3.19,3.19,0,0,0,276.4,416Z" style="fill: rgb(250, 250, 250); transform-origin: 349.877px 364.214px;" id="el7wlpv9xxjwl" class="animable"></path><path d="M431.75,318.79H292.45a6.46,6.46,0,0,0-6.37,5.57L272.73,416.3l4.8,5.63h139.2a6.46,6.46,0,0,0,6.34-5.44l15-90.1A6.49,6.49,0,0,0,431.75,318.79Z" style="fill: #FFFFFF; transform-origin: 355.448px 370.36px;" id="elyw5zzsjigqf" class="animable"></path><polygon points="316.35 369.16 316.12 366.29 306.31 367.11 306.54 369.97 316.35 369.16" style="fill: rgb(38, 50, 56); transform-origin: 311.33px 368.13px;" id="el44ivh3mj2p" class="animable"></polygon><polygon points="309.96 370.89 311.4 388.66 314.57 388.4 313.13 370.63 309.96 370.89" style="fill: rgb(38, 50, 56); transform-origin: 312.265px 379.645px;" id="eljdu0xfo16" class="animable"></polygon><polygon points="408.34 361.49 408.1 358.63 398.29 359.45 398.52 362.31 408.34 361.49" style="fill: rgb(38, 50, 56); transform-origin: 403.315px 360.47px;" id="elo9g96xpud5g" class="animable"></polygon><polygon points="401.94 363.23 403.38 381 406.56 380.74 405.11 362.97 401.94 363.23" style="fill: rgb(38, 50, 56); transform-origin: 404.25px 371.985px;" id="elzg2ems795n" class="animable"></polygon><path d="M323.17,384.71c-.7-.14-1.16-.73-1.26-2l-1-11.79c-.1-1.25.26-1.9.93-2.16l-.26-3.15c-2.74.46-4.09,2.52-3.83,5.8l.93,11.35c.26,3.27,1.93,5.08,4.71,5.09Z" style="fill: rgb(38, 50, 56); transform-origin: 320.554px 376.73px;" id="elm9fynjtflzn" class="animable"></path><path d="M322.73,365.53l.25,3.16c.7.14,1.16.73,1.26,2l1,11.79c.1,1.25-.26,1.9-.92,2.16l.25,3.16c2.74-.47,4.09-2.53,3.83-5.8l-.92-11.36C327.17,367.35,325.5,365.54,322.73,365.53Z" style="fill: rgb(38, 50, 56); transform-origin: 325.581px 376.665px;" id="el73fquc54m8f" class="animable"></path><polygon points="331.83 364.98 328.94 365.22 330.71 387.06 333.61 386.81 331.83 364.98" style="fill: rgb(38, 50, 56); transform-origin: 331.275px 376.02px;" id="ell47lv8prcw" class="animable"></polygon><path d="M333.61,364.83l-.67.06.25,3.12.67-.06c1-.08,1.6.37,1.73,1.93l.27,3.28c.12,1.55-.39,2.1-1.4,2.18l-.67.06.26,3.12.67-.06c3.17-.26,4.58-2.29,4.29-5.79l-.23-2.84C338.5,366.34,336.79,364.57,333.61,364.83Z" style="fill: rgb(38, 50, 56); transform-origin: 335.994px 371.662px;" id="eltosqdvxjuxi" class="animable"></path><polygon points="363.51 371.61 360.02 371.9 360.27 375.01 363.76 374.73 363.51 371.61" style="fill: rgb(38, 50, 56); transform-origin: 361.89px 373.31px;" id="elu5jjch3sgin" class="animable"></polygon><polygon points="358.16 362.79 355.23 363.03 357 384.87 359.94 384.62 358.16 362.79" style="fill: rgb(38, 50, 56); transform-origin: 357.585px 373.83px;" id="elvk0nf7upm7" class="animable"></polygon><polygon points="359.27 362.7 359.52 365.81 364.14 365.43 363.89 362.31 359.27 362.7" style="fill: rgb(38, 50, 56); transform-origin: 361.705px 364.06px;" id="elqh0lyk4g43n" class="animable"></polygon><polygon points="361.04 384.53 365.66 384.14 365.41 381.02 360.79 381.41 361.04 384.53" style="fill: rgb(38, 50, 56); transform-origin: 363.225px 382.775px;" id="eloh9jyk0gizd" class="animable"></polygon><path d="M371.42,380.67c-.72-.12-1.19-.69-1.29-1.95l-1-11.79c-.1-1.27.27-1.92.95-2.17l-.25-3.16c-2.81.42-4.12,2.49-3.86,5.81l.93,11.35c.27,3.32,1.9,5.14,4.73,5.1Z" style="fill: rgb(38, 50, 56); transform-origin: 368.784px 372.73px;" id="elxwk7pg8qdfh" class="animable"></path><path d="M371,361.53l.25,3.15c.68.15,1.13.74,1.23,2l.19,2.34,3-.25-.18-2.12C375.22,363.39,373.67,361.58,371,361.53Z" style="fill: rgb(38, 50, 56); transform-origin: 373.335px 365.275px;" id="elg2xma26p076" class="animable"></path><path d="M373.42,378.44c.1,1.23-.25,1.87-.9,2.13l.26,3.18c2.65-.5,3.89-2.55,3.63-5.78l-.24-2.9-3,.25Z" style="fill: rgb(38, 50, 56); transform-origin: 374.482px 379.41px;" id="elugvi06ny3k" class="animable"></path><polygon points="379.68 361 376.99 361.22 378.76 383.05 381.46 382.83 379.68 361" style="fill: rgb(38, 50, 56); transform-origin: 379.225px 372.025px;" id="el17z4lvb6fpw" class="animable"></polygon><path d="M388.07,379.61l-.27-3.37c-.19-2.28-.84-3.89-2.49-4.47,1.36-.84,1.91-2.36,1.72-4.6l-.14-1.72c-.27-3.37-1.82-4.9-5.11-4.63l-1,.08.26,3.12.9-.07c1.12-.1,1.67.55,1.8,2.11l.17,2.15c.14,1.75-.53,2.37-1.72,2.47l-.61.05.25,3.12.47,0c1.45-.12,2.14.57,2.31,2.6l.28,3.43a7.18,7.18,0,0,0,.5,2.66l3.24-.27A6.84,6.84,0,0,1,388.07,379.61Z" style="fill: rgb(38, 50, 56); transform-origin: 384.705px 371.665px;" id="eld75zh3dxn4d" class="animable"></path><polygon points="391.53 360.01 388.59 360.25 390.37 382.09 393.31 381.84 391.53 360.01" style="fill: rgb(38, 50, 56); transform-origin: 390.95px 371.05px;" id="elj7iml0wkut" class="animable"></polygon><polygon points="396.87 368.83 393.39 369.12 393.64 372.24 397.13 371.95 396.87 368.83" style="fill: rgb(38, 50, 56); transform-origin: 395.26px 370.535px;" id="elailwqwvrq28" class="animable"></polygon><polygon points="394.42 381.75 399.03 381.37 398.77 378.25 394.16 378.63 394.42 381.75" style="fill: rgb(38, 50, 56); transform-origin: 396.595px 380px;" id="elyav9oj01io" class="animable"></polygon><polygon points="392.64 359.92 392.89 363.04 397.51 362.65 397.25 359.53 392.64 359.92" style="fill: rgb(38, 50, 56); transform-origin: 395.075px 361.285px;" id="el1xjjsl7mq56" class="animable"></polygon><path d="M349.72,382.51c-.78-.08-1.3-.64-1.41-2l-.13-1.56-3,.25.11,1.35c.27,3.29,1.88,5.11,4.68,5.09Z" style="fill: rgb(38, 50, 56); transform-origin: 347.575px 382.295px;" id="el81t3dk3s11t" class="animable"></path><path d="M349.53,366.46c.71.13,1.15.72,1.26,2l.07.9,3-.25-.05-.68c-.27-3.26-1.82-5.08-4.54-5.1Z" style="fill: rgb(38, 50, 56); transform-origin: 351.565px 366.345px;" id="el72ndu0ml8gs" class="animable"></path><path d="M347.61,368.72c-.1-1.21.2-1.86.81-2.13l-.25-3.18c-2.72.46-4,2.51-3.71,5.79.5,6.24,6.78,6.57,7.14,11.06.1,1.16-.21,1.79-.78,2.08l.26,3.22c2.68-.48,3.94-2.53,3.68-5.78C354.25,373.54,348,373.21,347.61,368.72Z" style="fill: rgb(38, 50, 56); transform-origin: 349.607px 374.485px;" id="elti2ffaulht9" class="animable"></path><path d="M303.16,398.25a3.81,3.81,0,0,1-2.49-.92,3.88,3.88,0,0,1-1.38-2.69l-2.57-31.7a3.92,3.92,0,0,1,3.55-4.24l111-9.25a3.84,3.84,0,0,1,2.82.91,4,4,0,0,1,1.38,2.69l2.57,31.7a3.92,3.92,0,0,1-3.55,4.25h0l-110.95,9.24Zm108.39-47.81h-.24l-110.95,9.24a2.93,2.93,0,0,0-2.65,3.17l2.58,31.7a2.9,2.9,0,0,0,1,2,2.85,2.85,0,0,0,2.09.67l111-9.24a2.92,2.92,0,0,0,2.65-3.16l-2.58-31.71a2.91,2.91,0,0,0-1-2A2.85,2.85,0,0,0,411.55,350.44Z" style="fill: rgb(38, 50, 56); transform-origin: 357.38px 373.843px;" id="elvowi3bnc5xn" class="animable"></path><polygon points="420.11 320.19 422.81 352.67 382.69 356.1 379.99 323.62 420.11 320.19" style="fill: rgb(250, 250, 250); transform-origin: 401.4px 338.145px;" id="eldf7glsblknd" class="animable"></polygon><path d="M420.11,320.19l-.2,0-.56.06-2.18.2-8.21.73-29,2.52.09-.11c.81,9.67,1.74,20.75,2.72,32.48h0l-.13-.11,40.12-3.41-.08.11c-.8-9.78-1.46-17.89-1.92-23.56-.22-2.84-.4-5.07-.52-6.59-.06-.76-.1-1.34-.13-1.74s0-.6,0-.6,0,.19.05.58.09,1,.16,1.72c.13,1.52.32,3.73.57,6.56.49,5.68,1.18,13.81,2,23.61v.1h-.1l-40.12,3.45h-.11v-.12h0c-1-11.73-1.9-22.81-2.7-32.48v-.11H380l29-2.43,8.19-.67,2.16-.17.55,0Z" style="fill: rgb(38, 50, 56); transform-origin: 401.375px 338.18px;" id="elujbizkiy25c" class="animable"></path><polygon points="383.91 353.94 421.21 350.75 418.84 322.36 381.54 325.55 383.91 353.94" style="fill: rgb(69, 90, 100); transform-origin: 401.375px 338.15px;" id="elpsutknoxdgh" class="animable"></polygon><g id="elkn4ig0e7q7r"><g style="opacity: 0.3; transform-origin: 402.56px 344.56px;" class="animable" id="elqvhx65s1mv"><polygon points="383.91 353.94 395.46 335.18 404.45 345.53 409.44 339.16 421.21 350.75 383.91 353.94" id="elf96x0zizmjq" class="animable" style="transform-origin: 402.56px 344.56px;"></polygon></g></g><g id="ely36tmlnejz8"><g style="opacity: 0.3; transform-origin: 403.79px 332.245px;" class="animable" id="el7ewilwtmu5d"><path d="M406.78,332a3,3,0,0,1-2.69,3.23,3,3,0,1,1,2.69-3.23Z" id="el4mdtr9kuxm" class="animable" style="transform-origin: 403.79px 332.245px;"></path></g></g><path d="M403.6,330a3.15,3.15,0,0,1-3.13-3.17v-6.72h1.2v6.72a1.93,1.93,0,1,0,3.85,0v-9.12a3.82,3.82,0,1,0-7.63,0v1.21h-1.21v-1.21a5,5,0,1,1,10,0v9.12A3.15,3.15,0,0,1,403.6,330Z" style="fill: rgb(224, 224, 224); transform-origin: 401.68px 321.355px;" id="elhznef9bk2sv" class="animable"></path><path d="M403.6,330s.21,0,.59-.08a3.05,3.05,0,0,0,1.51-.8,3.18,3.18,0,0,0,1-2.49c0-1.1,0-2.35,0-3.73s0-2.92,0-4.57a6.07,6.07,0,0,0-.37-2.48,5,5,0,0,0-1.61-2.12,4.88,4.88,0,0,0-5.47-.31,4.94,4.94,0,0,0-2,2.31,5.06,5.06,0,0,0-.39,1.54c0,.53,0,1.1,0,1.65l-.1-.1h1.21l-.11.1a14,14,0,0,1,.07-1.93,4,4,0,0,1,.83-1.8,3.9,3.9,0,0,1,6.65,1,4.71,4.71,0,0,1,.29,1.92V320c0,2.51,0,4.9-.05,7.25a2.07,2.07,0,0,1-1.06,1.38,2,2,0,0,1-1.69.06,2.05,2.05,0,0,1-1.12-1.21,5.17,5.17,0,0,1-.11-1.6c0-2.06,0-4,0-5.79l.07.08h-1.2l.07-.07c0,1.8,0,3.43,0,4.87,0,.71,0,1.37,0,2a3.16,3.16,0,0,0,2.28,2.9,6.29,6.29,0,0,0,.8.13,2.75,2.75,0,0,1-.81-.09,3.14,3.14,0,0,1-1.85-1.34,3.1,3.1,0,0,1-.51-1.6c0-.61,0-1.28,0-2,0-1.44,0-3.07,0-4.87V320h1.36v.08c0,1.79,0,3.73,0,5.79a5.6,5.6,0,0,0,.11,1.54,1.84,1.84,0,0,0,1,1.1,1.82,1.82,0,0,0,1.53-.06,1.88,1.88,0,0,0,1-1.25c.08-2.27,0-4.72,0-7.21,0-.62,0-1.25,0-1.89a4.26,4.26,0,0,0-.28-1.84,3.68,3.68,0,0,0-6.29-1,3.83,3.83,0,0,0-.79,1.71,13.17,13.17,0,0,0-.06,1.89V319h-1.4v-.11c0-.56,0-1.1,0-1.66a5.53,5.53,0,0,1,.41-1.61,5.14,5.14,0,0,1,2.09-2.39,5.07,5.07,0,0,1,5.68.33,5.17,5.17,0,0,1,1.65,2.19,6.18,6.18,0,0,1,.37,2.55c0,1.65,0,3.18,0,4.57s0,2.63,0,3.73a3.24,3.24,0,0,1-1,2.54,3.15,3.15,0,0,1-1.55.79A2.71,2.71,0,0,1,403.6,330Z" style="fill: rgb(38, 50, 56); transform-origin: 401.807px 321.259px;" id="elnyyfssl9nyn" class="animable"></path><g id="elze1q5c0macs"><g style="opacity: 0.3; transform-origin: 421.954px 373.5px;" class="animable" id="el2gkgzfnpd17"><path d="M417,346.87a7.61,7.61,0,0,0,2.9,6.51c2.48,1.88,6,2.1,8.16,4.37a7.47,7.47,0,0,1,1.48,6.86,13.71,13.71,0,0,1-3.81,6.13c-1.72,1.71-3.68,3.15-5.51,4.75a29.67,29.67,0,0,0-6.66,8,44.83,44.83,0,0,0-2.24,5q-1.11,2.75-2.2,5.49c-.63,1.56-1.19,3.52-.07,4.75a4.44,4.44,0,0,0,3.1,1.06c4.8.34,9.68.68,14.38-.34,0-.82.05-1.65.07-2.47,0,0,8-28.23,8-28s.9-17.85.9-17.85Z" id="elw7gurog8z2" class="animable" style="transform-origin: 421.954px 373.5px;"></path></g></g><path d="M440.11,352.13s2.39-6.91-5.63-9.21c-5.22-1.5-21.37-4.67-18.87,3a7.45,7.45,0,0,0,6.4,4.84c3.77.44,6.95,3.48,6.95,3.48s2.54,2,2.2,4.38-.05,7.83-7.09,10.31-10.38,5.22-12.61,9.78c-2,4,.5,5.75.5,5.75s-4.32,3.33-3.59,6.5a5.31,5.31,0,0,1-.76,3.53l0,0a3.47,3.47,0,0,0,2.52,4.92l.35.07s21.37-.78,26.16-6.3,5.52-10.55,5.52-10.55,3.93-6.69-.51-10.6c1.63-7.67,0-11.56-3-13.83Z" style="fill: rgb(255, 191, 157); transform-origin: 425.516px 370.23px;" id="elplzr8h6v2m" class="animable"></path><path d="M412,384.5c0,.15,1.73,0,4.42-.59s6.37-1.61,10.34-2.79a23.12,23.12,0,0,0,5.61-2.16,21.93,21.93,0,0,0,3.89-3c2.06-1.95,2.69-3.72,2.51-3.76a25.69,25.69,0,0,1-3.05,3.15,20.5,20.5,0,0,1-9.27,4.67l-10.22,3.12C413.57,383.88,411.93,384.33,412,384.5Z" style="fill: rgb(255, 154, 108); transform-origin: 425.399px 378.377px;" id="el1ag35vid6a4" class="animable"></path><path d="M408.92,393.42c0,.12,2.05.79,5.54.77a47.16,47.16,0,0,0,13.25-2.51l3.65-1.15a14.5,14.5,0,0,0,3.39-1.43,16.26,16.26,0,0,0,4.24-4.55c2-2.89,2.57-5.08,2.4-5.11s-.93,1.93-3.05,4.62a17.16,17.16,0,0,1-4.13,4.12c-1.83,1.05-4.38,1.55-6.83,2.39a58.58,58.58,0,0,1-12.95,2.8C411.05,393.6,409,393.23,408.92,393.42Z" style="fill: rgb(255, 154, 108); transform-origin: 425.169px 386.815px;" id="elsh99jfj2id" class="animable"></path><path d="M422.07,350.74c-.11.3,2.87,1.67,6.66,3.07a24.75,24.75,0,0,0,5,1.48c1.37.17,2.22-.07,2.2-.21s-.81-.24-2-.6-2.88-1.06-4.79-1.76C425.34,351.32,422.18,350.44,422.07,350.74Z" style="fill: rgb(255, 154, 108); transform-origin: 428.999px 353.015px;" id="el587ghk99d64" class="animable"></path><path d="M386.4,410.78V417h-1.21V408.4h1.68l1.38,5.17V408.4h1.19V417h-1.37Z" style="fill: rgb(255, 255, 255); transform-origin: 387.315px 412.7px;" id="eldbfoqr84ous" class="animable"></path><path d="M390.33,409.71a1.3,1.3,0,1,1,2.59,0v1.91a1.3,1.3,0,1,1-2.59,0Zm2.59,3.79v.85h-2.59v-.85Zm-1.73-1.83c0,.4.16.53.44.53s.44-.13.44-.53v-2c0-.39-.17-.53-.44-.53s-.44.14-.44.53Z" style="fill: rgb(255, 255, 255); transform-origin: 391.625px 411.323px;" id="el9cdfxjlyd2m" class="animable"></path><path d="M416.61,417c0,.15-5,.26-11.23.26s-11.22-.11-11.22-.26,5-.26,11.22-.26S416.61,416.9,416.61,417Z" style="fill: rgb(255, 255, 255); transform-origin: 405.385px 417px;" id="elov9ed2f34z" class="animable"></path></g><defs>     <filter id="active" height="200%">         <feMorphology in="SourceAlpha" result="DILATED" operator="dilate" radius="2"></feMorphology>                <feFlood flood-color="#32DFEC" flood-opacity="1" result="PINK"></feFlood>        <feComposite in="PINK" in2="DILATED" operator="in" result="OUTLINE"></feComposite>        <feMerge>            <feMergeNode in="OUTLINE"></feMergeNode>            <feMergeNode in="SourceGraphic"></feMergeNode>        </feMerge>    </filter>    <filter id="hover" height="200%">        <feMorphology in="SourceAlpha" result="DILATED" operator="dilate" radius="2"></feMorphology>                <feFlood flood-color="#ff0000" flood-opacity="0.5" result="PINK"></feFlood>        <feComposite in="PINK" in2="DILATED" operator="in" result="OUTLINE"></feComposite>        <feMerge>            <feMergeNode in="OUTLINE"></feMergeNode>            <feMergeNode in="SourceGraphic"></feMergeNode>        </feMerge>            <feColorMatrix type="matrix" values="0   0   0   0   0                0   1   0   0   0                0   0   0   0   0                0   0   0   1   0 "></feColorMatrix>    </filter></defs></svg>